<svg id="Layer_1" data-name="Layer 1" xmlns="http://www.w3.org/2000/svg" xmlns:xlink="http://www.w3.org/1999/xlink" width="160.059" height="25.431" viewBox="0 0 160.059 25.431">
  <defs>
    <radialGradient id="radial-gradient" cx="1.187" cy="0.5" r="2.354" gradientTransform="translate(0.747) scale(0.361 1)" gradientUnits="objectBoundingBox">
      <stop offset="0" stop-color="#929497"/>
      <stop offset="1"/>
    </radialGradient>
    <radialGradient id="radial-gradient-2" cx="0.085" cy="0.5" r="2.351" gradientTransform="translate(0.051) scale(0.278 1)" xlink:href="#radial-gradient"/>
    <radialGradient id="radial-gradient-3" cx="1.187" cy="0.5" r="2.353" gradientTransform="translate(0.748) scale(0.361 1)" xlink:href="#radial-gradient"/>
    <radialGradient id="radial-gradient-4" cx="0.085" cy="0.5" r="2.351" gradientTransform="translate(0.052) scale(0.278 1)" xlink:href="#radial-gradient"/>
    <radialGradient id="radial-gradient-5" cx="1.187" cy="0.5" r="2.354" gradientTransform="translate(0.75) scale(0.361 1)" xlink:href="#radial-gradient"/>
    <radialGradient id="radial-gradient-6" cx="0.085" cy="0.5" r="2.347" gradientTransform="translate(0.054) scale(0.279 1)" xlink:href="#radial-gradient"/>
    <radialGradient id="radial-gradient-7" cx="1.187" cy="0.5" r="2.353" gradientTransform="translate(0.752) scale(0.361 1)" xlink:href="#radial-gradient"/>
    <radialGradient id="radial-gradient-8" cx="0.085" cy="0.5" r="2.348" gradientTransform="translate(0.055) scale(0.279 1)" xlink:href="#radial-gradient"/>
    <radialGradient id="radial-gradient-9" cx="1.187" cy="0.501" r="2.354" gradientTransform="translate(0.754) scale(0.361 1)" xlink:href="#radial-gradient"/>
    <radialGradient id="radial-gradient-10" cx="0.085" cy="0.5" r="2.35" gradientTransform="translate(0.057) scale(0.278 1)" xlink:href="#radial-gradient"/>
    <radialGradient id="radial-gradient-11" cx="1.187" cy="0.5" r="2.353" gradientTransform="translate(0.755) scale(0.361 1)" xlink:href="#radial-gradient"/>
    <radialGradient id="radial-gradient-12" cx="0.085" cy="0.5" r="2.35" gradientTransform="translate(0.058) scale(0.278 1)" xlink:href="#radial-gradient"/>
    <radialGradient id="radial-gradient-13" cx="1.187" cy="0.501" r="2.354" gradientTransform="translate(0.757) scale(0.361 1)" xlink:href="#radial-gradient"/>
    <radialGradient id="radial-gradient-14" cx="0.085" cy="0.5" r="2.349" gradientTransform="translate(0.06) scale(0.279 1)" xlink:href="#radial-gradient"/>
    <radialGradient id="radial-gradient-15" cx="1.187" cy="0.501" r="2.354" gradientTransform="translate(0.759) scale(0.361 1)" xlink:href="#radial-gradient"/>
    <radialGradient id="radial-gradient-16" cx="0.085" cy="0.5" r="2.351" gradientTransform="translate(0.061) scale(0.278 1)" xlink:href="#radial-gradient"/>
  </defs>
  <path id="Path_1104" data-name="Path 1104" d="M60.336,0H46.024L44.466,6.886H48.2L45.849,17.239H40.422L44.345,0H16.837L13.909,6.672,14.027,0H5.481L0,24.128H7.116l.1-.418v.418h12.9l.836-3.7a3.454,3.454,0,0,0,.252.958A4.176,4.176,0,0,0,22.477,23.1a3.914,3.914,0,0,0,1.181.658,6.066,6.066,0,0,0,.894.243,4.588,4.588,0,0,0,1.073.125h1.433a6.087,6.087,0,0,0,.7-.042c.2-.022.412-.061.638-.105a5.031,5.031,0,0,0,.913-.284,7.854,7.854,0,0,0,1.057-.485,5.376,5.376,0,0,0,1.242-.913,6.3,6.3,0,0,0,.8-1l-.638,2.835H51.4L55.32,6.889h2.873L54.27,24.128h7.023L66.877,0Z" transform="translate(0 0.001)" fill="#fff"/>
  <path id="Path_1105" data-name="Path 1105" d="M312.07,2.734A4.181,4.181,0,0,0,310.765.985l-.042-.032-.045-.032a5.851,5.851,0,0,0-1.012-.536A5.655,5.655,0,0,0,308.709.1a3.921,3.921,0,0,0-.881-.1H276.408L275.6,3.51a3.427,3.427,0,0,0-.23-.82,4.2,4.2,0,0,0-1.3-1.724L274.03.934,273.985.9A5.844,5.844,0,0,0,272.97.366a5.655,5.655,0,0,0-.958-.284A3.921,3.921,0,0,0,271.135,0h-1.622a6.646,6.646,0,0,0-1.191.1,6.118,6.118,0,0,0-1.057.3,5.66,5.66,0,0,0-1.973,1.226,7.715,7.715,0,0,0-1.13,1.357,5.621,5.621,0,0,0-.638,1.347,4.562,4.562,0,0,0-.188.715l-.706,3.192L263.853,0h-6.774A2.732,2.732,0,0,0,254.9,1.256a11.1,11.1,0,0,0-1.085,1.785c-.128.233-.255.482-.377.734l-.351.747c-.1.2-.185.4-.262.6a2.632,2.632,0,0,1-.137.319l-.045.089-.032.093c-.1.287-.2.533-.294.737L252.3,6.4l-.016.042c-.211.527-.37.958-.492,1.331-.048.15-.08.243-.1.3l-.045.067-2.279,6.806a3.832,3.832,0,0,0-.185-1.117,4.35,4.35,0,0,0-.156-.418c.128-.137.252-.281.364-.428s.22-.294.319-.45a4.245,4.245,0,0,0,.281-.524,5.558,5.558,0,0,0,.54-1.52l1.136-4.9a4.674,4.674,0,0,0-.105-2.854A4.182,4.182,0,0,0,250.26.985l-.042-.032-.045-.032a5.845,5.845,0,0,0-1.015-.536A5.652,5.652,0,0,0,248.2.1a3.92,3.92,0,0,0-.884-.1H227.3l-1.555,6.886h3.741l-3.92,17.239h7.116l3.92-17.239h2.442l-3.943,17.239h25.162l.358-2.417a4.006,4.006,0,0,0,1.156,1.411,3.909,3.909,0,0,0,1.162.638,6.065,6.065,0,0,0,.894.243,4.47,4.47,0,0,0,1.044.125h1.462a3.683,3.683,0,0,0,.824-.1h.038a3.769,3.769,0,0,1,.386-.083,4.285,4.285,0,0,0,.986-.281,7.71,7.71,0,0,0,1.06-.485,5.383,5.383,0,0,0,1.219-.923,5.778,5.778,0,0,0,.638-.782l-.607,2.65H278l.268-1.165.262,1.165h7.323l9.813.035V24.12h12.291l1.749-7.732a4.723,4.723,0,0,0-.026-2.554,4.358,4.358,0,0,0-.156-.418c.128-.137.252-.281.364-.428a5.19,5.19,0,0,0,.319-.45,3.876,3.876,0,0,0,.284-.524,5.666,5.666,0,0,0,.539-1.52l1.136-4.9a4.672,4.672,0,0,0-.1-2.864ZM268.335,14.486l1.069-4.91,4.82-.038-1.121,4.9ZM282.7,12.436l5.842-8.042-3.674,16.064Zm12.37-5.545h4.488l-.38,1.66H294.71Zm-1.935,8.546h4.469l-.421,1.832h-4.469Z" transform="translate(-153.56 0.002)" fill="#fff"/>
  <path id="Path_1106" data-name="Path 1106" d="M64.336,4H50.015l-1.558,6.886H52.2L49.839,21.239H44.412L48.335,4H20.827L17.9,10.672,18.018,4H9.472L4,28.118h7.106l.1-.421v.421h12.91l.827-3.687a3.483,3.483,0,0,0,.252.958A4.2,4.2,0,0,0,26.468,27.1a3.914,3.914,0,0,0,1.181.658,6.5,6.5,0,0,0,.894.243,4.587,4.587,0,0,0,1.073.125h1.433a6.086,6.086,0,0,0,.7-.042c.2-.026.412-.061.638-.109a4.961,4.961,0,0,0,.916-.281,7.853,7.853,0,0,0,1.057-.485,5.3,5.3,0,0,0,1.216-.923,6.327,6.327,0,0,0,.8-1l-.638,2.838H55.4L59.32,10.883h2.873L58.27,28.118h7.023L70.867,4Z" transform="translate(-2.723 -2.722)" fill="url(#radial-gradient)"/>
  <path id="Path_1107" data-name="Path 1107" d="M316.037,6.726a4.15,4.15,0,0,0-1.3-1.749l-.042-.032-.045-.032a5.634,5.634,0,0,0-1-.536,5.109,5.109,0,0,0-.958-.284A3.919,3.919,0,0,0,311.8,4H280.375l-.8,3.512a3.421,3.421,0,0,0-.23-.82,4.2,4.2,0,0,0-1.3-1.724L278,4.935l-.045-.032a5.637,5.637,0,0,0-1.021-.527,5.108,5.108,0,0,0-.958-.284A3.92,3.92,0,0,0,275.1,4h-1.622a6.6,6.6,0,0,0-1.191.1,5.96,5.96,0,0,0-1.057.3,5.656,5.656,0,0,0-1.963,1.216,7.712,7.712,0,0,0-1.127,1.357,5.538,5.538,0,0,0-.638,1.344,4.668,4.668,0,0,0-.188.718l-.706,3.192L267.823,4h-6.777a2.735,2.735,0,0,0-2.171,1.255,11.28,11.28,0,0,0-1.085,1.788c-.128.233-.255.482-.377.734s-.233.495-.351.747a6.442,6.442,0,0,0-.262.6,3.262,3.262,0,0,1-.137.319l-.045.089-.032.093c-.1.284-.2.533-.294.737l-.019.038v.042c-.211.527-.37.958-.492,1.331-.048.15-.08.243-.1.3l-.045.067-2.3,6.8a3.831,3.831,0,0,0-.185-1.117,4.353,4.353,0,0,0-.166-.412c.128-.137.252-.281.364-.428a5.178,5.178,0,0,0,.319-.45,3.867,3.867,0,0,0,.281-.524,5.455,5.455,0,0,0,.54-1.52l1.136-4.9a4.651,4.651,0,0,0-.112-2.857,4.188,4.188,0,0,0-1.306-1.749l-.042-.032-.045-.032a5.633,5.633,0,0,0-1.015-.536,5.106,5.106,0,0,0-.958-.284,3.92,3.92,0,0,0-.868-.1h-20l-1.564,6.883h3.741l-3.92,17.239h7.116l3.92-17.239h2.439l-3.939,17.239h25.159l.361-2.413a3.994,3.994,0,0,0,1.165,1.4,3.9,3.9,0,0,0,1.165.638,6.5,6.5,0,0,0,.894.243,4.469,4.469,0,0,0,1.044.125h1.462a3.684,3.684,0,0,0,.824-.1h.038a3.691,3.691,0,0,1,.374-.073,4.47,4.47,0,0,0,.99-.281,7.54,7.54,0,0,0,1.06-.488,5.194,5.194,0,0,0,1.216-.919,5.744,5.744,0,0,0,.638-.782l-.607,2.65h7.119l.268-1.168.262,1.168h7.323l9.813.035v-.035h12.291l1.749-7.732a4.72,4.72,0,0,0-.026-2.554,4.35,4.35,0,0,0-.156-.418c.128-.137.252-.281.364-.428a5.2,5.2,0,0,0,.319-.45,3.876,3.876,0,0,0,.281-.524,5.458,5.458,0,0,0,.54-1.52l1.136-4.9a4.626,4.626,0,0,0-.105-2.87ZM272.3,18.477l1.073-4.9,4.82-.038-1.12,4.9Zm14.366-2.049,5.842-8.042L288.838,24.45Zm12.37-5.545h4.488l-.377,1.66h-4.485ZM297.1,19.428h4.469l-.421,1.832h-4.469Z" transform="translate(-156.263 -2.722)" fill="url(#radial-gradient-2)"/>
  <path id="Path_1108" data-name="Path 1108" d="M63.736,3.413H49.424L47.87,10.3h3.741L49.242,20.649H43.815L47.736,3.41h-27.5l-2.918,6.675.118-6.672H8.881L3.4,27.541h7.116l.1-.418v.418h12.9l.833-3.7a3.511,3.511,0,0,0,.252.958,4.192,4.192,0,0,0,1.277,1.7,3.831,3.831,0,0,0,1.181.658,6.531,6.531,0,0,0,.894.246,4.763,4.763,0,0,0,1.073.121h1.433a6.046,6.046,0,0,0,.7-.042c.2-.022.412-.057.638-.105A5.031,5.031,0,0,0,32.7,27.1a7.661,7.661,0,0,0,1.057-.485,5.465,5.465,0,0,0,1.219-.919,6.279,6.279,0,0,0,.8-1l-.638,2.835H54.8l3.92-17.239H61.59L57.683,27.541h7.023L70.277,3.413Z" transform="translate(-2.315 -2.321)" fill="url(#radial-gradient-3)"/>
  <path id="Path_1109" data-name="Path 1109" d="M315.491,6.145a4.2,4.2,0,0,0-1.3-1.749l-.045-.032-.045-.029a5.427,5.427,0,0,0-1.963-.824,3.9,3.9,0,0,0-.887-.1H279.829l-.808,3.528a3.267,3.267,0,0,0-.23-.824,4.17,4.17,0,0,0-1.3-1.724l-.045-.032-.045-.029a5.652,5.652,0,0,0-1.015-.54,5.564,5.564,0,0,0-.958-.284,3.9,3.9,0,0,0-.887-.1h-1.622a6.646,6.646,0,0,0-1.191.1,6.292,6.292,0,0,0-1.053.3,5.645,5.645,0,0,0-1.963,1.219,8.005,8.005,0,0,0-1.13,1.357,5.744,5.744,0,0,0-.638,1.347,4.472,4.472,0,0,0-.188.718l-.7,3.173L267.276,3.4H260.5a2.736,2.736,0,0,0-2.174,1.258,11.332,11.332,0,0,0-1.085,1.785c-.128.233-.252.482-.377.737l-.351.744a6.123,6.123,0,0,0-.259.6c-.038.1-.086.2-.14.319l-.045.089-.032.093a7.528,7.528,0,0,1-.294.737l-.019.038v.042c-.211.527-.37.958-.492,1.331-.048.15-.08.243-.1.3l-.045.067-2.279,6.806a3.974,3.974,0,0,0-.182-1.117c-.048-.144-.1-.284-.16-.418a5.071,5.071,0,0,0,.364-.428,4.936,4.936,0,0,0,.319-.447,4.554,4.554,0,0,0,.281-.527,5.521,5.521,0,0,0,.539-1.52L255.107,9a4.706,4.706,0,0,0-.115-2.873,4.2,4.2,0,0,0-1.3-1.749l-.045-.032-.064-.016a5.427,5.427,0,0,0-1.963-.824,3.9,3.9,0,0,0-.887-.1H230.724l-1.555,6.9h3.745L229,27.534h7.116L240.039,10.3h2.439l-3.949,17.239h25.159l.358-2.41a4.006,4.006,0,0,0,1.165,1.4,3.878,3.878,0,0,0,1.162.638,6.533,6.533,0,0,0,.894.246,4.639,4.639,0,0,0,1.044.121h1.462a3.83,3.83,0,0,0,.824-.1h.038a3.768,3.768,0,0,1,.377-.073,4.306,4.306,0,0,0,.99-.281,7.847,7.847,0,0,0,1.053-.5,5.4,5.4,0,0,0,1.861-1.7l-.606,2.65h7.119l.265-1.165.262,1.165h7.323l9.813.035v-.035h12.291l1.753-7.732a4.787,4.787,0,0,0-.025-2.554c-.048-.144-.1-.284-.16-.418a5.077,5.077,0,0,0,.364-.428,4.955,4.955,0,0,0,.319-.447,4.572,4.572,0,0,0,.284-.54,5.526,5.526,0,0,0,.54-1.52l1.136-4.9A4.446,4.446,0,0,0,315.491,6.145ZM271.755,17.9l1.079-4.9,4.82-.038-1.117,4.9Zm14.366-2.049,5.842-8.042-3.671,16.064Zm12.37-5.552h4.488l-.38,1.657h-4.469Zm-1.935,8.543h4.469l-.418,1.832h-4.469Z" transform="translate(-155.895 -2.314)" fill="url(#radial-gradient-4)"/>
  <path id="Path_1110" data-name="Path 1110" d="M63.166,2.853H48.854L47.3,9.739h3.741l-2.359,10.35H43.255L47.175,2.85H19.667L16.739,9.525l.121-6.672H8.311L2.83,26.975H9.946l.1-.421v.421h12.9l.84-3.7a3.63,3.63,0,0,0,.252.958,4.224,4.224,0,0,0,1.277,1.708,3.943,3.943,0,0,0,1.181.654,6.532,6.532,0,0,0,.894.246,4.626,4.626,0,0,0,1.073.125h1.437q.349,0,.7-.042c.2-.026.409-.061.638-.109a4.881,4.881,0,0,0,.913-.284,7.5,7.5,0,0,0,1.073-.479,5.523,5.523,0,0,0,1.216-.919,6.139,6.139,0,0,0,.8-1l-.638,2.838H54.249L58.17,9.736h2.873L57.129,26.975h7.023L69.707,2.853Z" transform="translate(-1.927 -1.94)" fill="url(#radial-gradient-5)"/>
  <path id="Path_1111" data-name="Path 1111" d="M314.927,5.518a4.223,4.223,0,0,0-1.3-1.749l-.045-.032-.045-.029a5.583,5.583,0,0,0-1.963-.824,3.9,3.9,0,0,0-.888-.1H279.266l-.8,3.512a3.645,3.645,0,0,0-.23-.824,4.223,4.223,0,0,0-1.3-1.724l-.041-.032-.045-.029a5.368,5.368,0,0,0-1.018-.536,5.236,5.236,0,0,0-.958-.287,3.9,3.9,0,0,0-.888-.1h-1.619a6.6,6.6,0,0,0-1.191.1,5.97,5.97,0,0,0-1.057.3,5.657,5.657,0,0,0-1.963,1.219,7.6,7.6,0,0,0-1.127,1.357,5.424,5.424,0,0,0-.638,1.344,4.662,4.662,0,0,0-.192.718l-.7,3.173,1.219-8.211h-6.777a2.736,2.736,0,0,0-2.174,1.255A11.5,11.5,0,0,0,256.676,5.8q-.191.354-.373.737c-.118.243-.236.492-.351.747a6.11,6.11,0,0,0-.262.6c-.038.1-.086.2-.137.319l-.045.089-.035.1a7.448,7.448,0,0,1-.294.734l-.016.042V9.2c-.211.527-.373.958-.492,1.334-.048.147-.08.239-.1.294l-.045.07-2.283,6.828a3.932,3.932,0,0,0-.185-1.114,4.4,4.4,0,0,0-.16-.421c.131-.137.252-.281.367-.428a5.1,5.1,0,0,0,.319-.447,4.069,4.069,0,0,0,.281-.524,5.454,5.454,0,0,0,.539-1.52l1.136-4.9a4.625,4.625,0,0,0-.115-2.873,4.2,4.2,0,0,0-1.3-1.749l-.045-.032-.045-.029a5.583,5.583,0,0,0-1.963-.824,3.9,3.9,0,0,0-.887-.1H230.164l-1.545,6.911h3.745L228.44,26.916h7.116l3.923-17.239h2.439l-3.939,17.239h25.159L263.5,24.5a4.014,4.014,0,0,0,1.165,1.4,3.878,3.878,0,0,0,1.162.638,6.531,6.531,0,0,0,.894.246,4.469,4.469,0,0,0,1.044.125h1.465a3.878,3.878,0,0,0,.824-.1h.038a3.589,3.589,0,0,1,.373-.07,4.322,4.322,0,0,0,.99-.284,7.479,7.479,0,0,0,1.057-.485,5.463,5.463,0,0,0,1.22-.919,5.6,5.6,0,0,0,.638-.785l-.607,2.653h7.116l.268-1.168.262,1.168h7.32l9.817.035v-.032h12.294l1.743-7.748a4.741,4.741,0,0,0-.026-2.554,4.407,4.407,0,0,0-.16-.421c.131-.137.252-.281.367-.428a5.13,5.13,0,0,0,.319-.447,4.068,4.068,0,0,0,.281-.524,5.452,5.452,0,0,0,.539-1.52l1.137-4.9a4.625,4.625,0,0,0-.109-2.867ZM271.192,17.272l1.079-4.9,4.824-.035-1.13,4.9Zm14.366-2.049L291.4,7.178l-3.671,16.067Zm12.374-5.545h4.485l-.374,1.657h-4.469Zm-1.938,8.543h4.469l-.418,1.836h-4.469Z" transform="translate(-155.514 -1.878)" fill="url(#radial-gradient-6)"/>
  <path id="Path_1112" data-name="Path 1112" d="M62.606,2.283H48.291L46.736,9.169h3.745l-2.362,10.35H42.692L46.615,2.28H19.1L16.176,8.952l.118-6.672H7.748L2.27,26.4H9.386l.1-.421V26.4H22.375l.84-3.7a3.6,3.6,0,0,0,.255.958,4.2,4.2,0,0,0,1.277,1.708,3.981,3.981,0,0,0,1.181.658,6.458,6.458,0,0,0,.891.243A4.635,4.635,0,0,0,27.9,26.4h1.424a6.089,6.089,0,0,0,.7-.042c.2-.026.412-.061.638-.109a4.961,4.961,0,0,0,.916-.281,7.853,7.853,0,0,0,1.073-.472,5.37,5.37,0,0,0,1.216-.923,6.327,6.327,0,0,0,.8-.993l-.638,2.838H53.68L57.6,9.179h2.873L56.559,26.417h7.023L69.147,2.283Z" transform="translate(-1.545 -1.551)" fill="url(#radial-gradient-7)"/>
  <path id="Path_1113" data-name="Path 1113" d="M314.337,4.965a4.152,4.152,0,0,0-1.3-1.749l-.042-.032-.045-.032a5.633,5.633,0,0,0-1.015-.536,5.107,5.107,0,0,0-.958-.284,3.942,3.942,0,0,0-.887-.1H278.675l-.8,3.512a3.574,3.574,0,0,0-.23-.82,4.2,4.2,0,0,0-1.3-1.724l-.042-.032-.045-.032A5.636,5.636,0,0,0,275.24,2.6a5.107,5.107,0,0,0-.958-.284,3.92,3.92,0,0,0-.887-.1h-1.622a6.6,6.6,0,0,0-1.191.1,6.066,6.066,0,0,0-3.02,1.516,7.714,7.714,0,0,0-1.127,1.357,5.539,5.539,0,0,0-.638,1.344,4.768,4.768,0,0,0-.191.718l-.7,3.192,1.223-8.214h-6.781a2.727,2.727,0,0,0-2.171,1.255,11.28,11.28,0,0,0-1.085,1.788c-.128.233-.255.482-.377.734s-.233.495-.351.747a6.45,6.45,0,0,0-.262.6,3.277,3.277,0,0,1-.137.319l-.045.089-.032.093c-.1.284-.2.533-.294.737l-.019.038-.016.038c-.211.53-.37.958-.492,1.334-.048.15-.08.243-.1.294l-.045.07-2.279,6.809a3.832,3.832,0,0,0-.185-1.114c-.048-.144-.1-.284-.156-.418.128-.137.252-.281.364-.428s.22-.294.319-.45a3.874,3.874,0,0,0,.281-.524,5.458,5.458,0,0,0,.527-1.52l1.136-4.9a4.626,4.626,0,0,0-.115-2.857,4.15,4.15,0,0,0-1.3-1.749l-.042-.032-.045-.032a5.633,5.633,0,0,0-1.015-.536,5.107,5.107,0,0,0-.958-.284,3.92,3.92,0,0,0-.852-.1H229.573l-1.555,6.892h3.741L227.84,26.36h7.116l3.92-17.239h2.439L237.376,26.36h25.159l.361-2.41a3.993,3.993,0,0,0,1.162,1.4,3.9,3.9,0,0,0,1.165.638,6.581,6.581,0,0,0,.891.243,4.51,4.51,0,0,0,1.047.125h1.462a3.683,3.683,0,0,0,.824-.1h.038c.105-.026.233-.048.374-.07a4.469,4.469,0,0,0,.99-.281,7.54,7.54,0,0,0,1.06-.488,5.356,5.356,0,0,0,1.216-.926,5.749,5.749,0,0,0,.638-.782l-.607,2.65h7.122l.268-1.168.262,1.168h7.323l9.813.035v-.035h12.31L312,18.625a4.722,4.722,0,0,0-.025-2.554c-.048-.144-.1-.284-.157-.418.128-.137.252-.281.364-.428s.22-.294.319-.45a3.843,3.843,0,0,0,.281-.524,5.451,5.451,0,0,0,.54-1.52l1.137-4.9a4.626,4.626,0,0,0-.125-2.87ZM270.6,16.716l1.079-4.9,4.821-.038-1.12,4.9Zm14.366-2.049,5.845-8.054-3.674,16.077Zm12.37-5.545h4.488l-.377,1.66h-4.485ZM295.4,17.667h4.469l-.421,1.832h-4.469Z" transform="translate(-155.105 -1.504)" fill="url(#radial-gradient-8)"/>
  <path id="Path_1114" data-name="Path 1114" d="M62.036,1.713H47.724L46.17,8.6h3.745l-2.359,10.35H42.128L46.048,1.71H18.537L15.609,8.382l.118-6.672H7.181L1.7,25.835H8.819l.1-.418v.418H21.809l.84-3.7a3.454,3.454,0,0,0,.252.958A4.2,4.2,0,0,0,24.177,24.8a3.831,3.831,0,0,0,1.181.658,6.531,6.531,0,0,0,.894.246,4.763,4.763,0,0,0,1.073.121h1.433a6.046,6.046,0,0,0,.7-.042c.2-.022.412-.057.638-.105a5.031,5.031,0,0,0,.913-.284,7.853,7.853,0,0,0,1.057-.485,5.376,5.376,0,0,0,1.216-.919,6.119,6.119,0,0,0,.8-1l-.638,2.835H53.1L57.024,8.59H59.9L55.98,25.828H63L68.577,1.713Z" transform="translate(-1.157 -1.163)" fill="url(#radial-gradient-9)"/>
  <path id="Path_1115" data-name="Path 1115" d="M313.77,4.422a4.2,4.2,0,0,0-1.3-1.749l-.045-.032-.045-.029a5.428,5.428,0,0,0-1.963-.83,3.92,3.92,0,0,0-.888-.1H278.108L277.3,5.192a3.422,3.422,0,0,0-.23-.82,4.169,4.169,0,0,0-1.3-1.724l-.045-.032-.045-.029a5.427,5.427,0,0,0-1.963-.8,3.92,3.92,0,0,0-.887-.1h-1.622a6.646,6.646,0,0,0-1.191.1,6,6,0,0,0-1.053.3A5.644,5.644,0,0,0,267.005,3.3a7.854,7.854,0,0,0-1.13,1.35A5.618,5.618,0,0,0,265.237,6a4.462,4.462,0,0,0-.188.718l-.7,3.173,1.22-8.214h-6.777a2.736,2.736,0,0,0-2.174,1.258,11.094,11.094,0,0,0-1.085,1.785c-.128.233-.252.482-.377.734L254.8,6.2c-.1.2-.185.4-.262.6a2.835,2.835,0,0,1-.137.319l-.045.089-.032.093c-.1.287-.2.533-.294.737l-.019.038L254,8.125c-.211.527-.37.958-.492,1.331-.048.15-.08.243-.1.3l-.045.067-2.279,6.806a3.954,3.954,0,0,0-.182-1.117c-.048-.144-.1-.284-.16-.418a5.06,5.06,0,0,0,.364-.428,5.2,5.2,0,0,0,.319-.45,4.25,4.25,0,0,0,.281-.524,5.522,5.522,0,0,0,.54-1.52l1.117-4.891a4.674,4.674,0,0,0-.115-2.857,4.2,4.2,0,0,0-1.3-1.749l-.045-.032-.045-.029a5.427,5.427,0,0,0-1.951-.83,3.92,3.92,0,0,0-.888-.1H229l-1.555,6.886h3.741L227.27,25.8h7.116l3.92-17.239h2.442L236.809,25.8h25.172l.358-2.41a4.006,4.006,0,0,0,1.165,1.4,3.879,3.879,0,0,0,1.162.638,6.53,6.53,0,0,0,.894.246,4.638,4.638,0,0,0,1.044.121h1.443a3.831,3.831,0,0,0,.824-.1h.038a3.769,3.769,0,0,1,.377-.073,4.307,4.307,0,0,0,.99-.281,7.853,7.853,0,0,0,1.057-.485,5.385,5.385,0,0,0,1.219-.923,5.781,5.781,0,0,0,.639-.782l-.607,2.65H279.7l.268-1.165.262,1.165h7.323l9.813.035v-.035h12.291l1.749-7.732a4.757,4.757,0,0,0-.022-2.554c-.048-.144-.1-.284-.16-.418a5.072,5.072,0,0,0,.364-.428,5.2,5.2,0,0,0,.319-.45,4.263,4.263,0,0,0,.281-.524,5.523,5.523,0,0,0,.552-1.529l1.137-4.9a4.674,4.674,0,0,0-.105-2.857ZM270.035,16.173l1.079-4.9,4.82-.038-1.13,4.913ZM284.4,14.124l5.842-8.042-3.681,16.064Zm12.377-5.545h4.469l-.38,1.66H296.4Zm-1.935,8.546h4.469l-.418,1.832h-4.469Z" transform="translate(-154.717 -1.143)" fill="url(#radial-gradient-10)"/>
  <path id="Path_1116" data-name="Path 1116" d="M61.466,1.16H47.154L45.6,8.046h3.741L46.982,18.392H41.555L45.462,1.16h-27.5L15.039,7.829,15.16,1.16H6.611L1.13,25.281H8.246l.1-.421v.421h12.9l.84-3.7a3.63,3.63,0,0,0,.252.958,4.192,4.192,0,0,0,1.277,1.7,3.882,3.882,0,0,0,1.181.658,6.53,6.53,0,0,0,.894.246,4.626,4.626,0,0,0,1.073.125h1.433a6.977,6.977,0,0,0,.7-.042c.2-.026.409-.061.638-.109a4.954,4.954,0,0,0,.932-.278,7.5,7.5,0,0,0,1.06-.485,5.523,5.523,0,0,0,1.2-.907,6.139,6.139,0,0,0,.8-1l-.638,2.838H52.543l3.92-17.239h2.873L55.422,25.294h7.023L68.007,1.16Z" transform="translate(-0.769 -0.789)" fill="url(#radial-gradient-11)"/>
  <path id="Path_1117" data-name="Path 1117" d="M313.207,3.845A4.223,4.223,0,0,0,311.9,2.1l-.045-.032-.045-.038a5.425,5.425,0,0,0-1.015-.536,5.312,5.312,0,0,0-.958-.287,3.9,3.9,0,0,0-.887-.1H277.561l-.8,3.512a3.645,3.645,0,0,0-.23-.824,4.224,4.224,0,0,0-1.3-1.724l-.045-.032-.057-.006a5.464,5.464,0,0,0-1.018-.536,5.235,5.235,0,0,0-.958-.287,3.9,3.9,0,0,0-.888-.1H270.64a6.6,6.6,0,0,0-1.188.1,5.971,5.971,0,0,0-1.057.3,5.657,5.657,0,0,0-1.963,1.219,7.7,7.7,0,0,0-1.127,1.354,5.5,5.5,0,0,0-.639,1.347,4.666,4.666,0,0,0-.192.718l-.7,3.173L264.993,1.1h-6.777a2.736,2.736,0,0,0-2.174,1.255,11.329,11.329,0,0,0-1.085,1.785q-.192.354-.374.737c-.118.243-.236.492-.351.747a6.117,6.117,0,0,0-.262.6c-.038.1-.086.2-.137.319l-.045.089-.035.1a7.8,7.8,0,0,1-.294.734l-.016.038-.016.042c-.214.527-.374.958-.492,1.334-.048.147-.08.239-.1.294l-.045.067-2.276,6.835a4.046,4.046,0,0,0-.185-1.114,4.416,4.416,0,0,0-.16-.421c.131-.137.252-.281.367-.428a5.117,5.117,0,0,0,.319-.447,3.9,3.9,0,0,0,.281-.527,5.4,5.4,0,0,0,.54-1.532l1.136-4.9a4.651,4.651,0,0,0-.115-2.857A4.223,4.223,0,0,0,251.384,2.1l-.045-.032-.035-.038a5.583,5.583,0,0,0-1.963-.824,3.9,3.9,0,0,0-.887-.1h-20.01l-1.558,6.886h3.748L226.71,25.224h7.116l3.923-17.239h2.439l-3.939,17.239h25.159l.358-2.413a3.976,3.976,0,0,0,1.165,1.4,3.879,3.879,0,0,0,1.162.638,6.534,6.534,0,0,0,.894.246,4.469,4.469,0,0,0,1.044.125H267.5a3.878,3.878,0,0,0,.824-.1h.038c.105-.026.23-.051.373-.073a4.147,4.147,0,0,0,.99-.281,7.843,7.843,0,0,0,1.057-.485A5.464,5.464,0,0,0,272,23.363a5.366,5.366,0,0,0,.639-.785l-.6,2.653h7.125l.265-1.168.265,1.168h7.32l9.816.035v-.032h12.294l1.749-7.735a4.741,4.741,0,0,0-.026-2.554,4.415,4.415,0,0,0-.16-.421,5.056,5.056,0,0,0,.364-.428,4.537,4.537,0,0,0,.319-.447,4.3,4.3,0,0,0,.281-.527,5.4,5.4,0,0,0,.54-1.52l1.13-4.9a4.652,4.652,0,0,0-.109-2.857ZM269.472,15.6l1.066-4.9,4.824-.035-1.117,4.9Zm14.366-2.046,5.855-8.045-3.671,16.067ZM296.211,8H300.7l-.38,1.657h-4.469Zm-1.938,8.543h4.469l-.431,1.836h-4.469Z" transform="translate(-154.336 -0.748)" fill="url(#radial-gradient-12)"/>
  <path id="Path_1118" data-name="Path 1118" d="M60.906.583H46.591L45.036,7.469h3.741l-2.359,10.35H40.992L44.915.58H17.407L14.479,7.252,14.6.583H6.048L.57,24.7H7.686l.093-.421V24.7h12.9l.84-3.7a3.6,3.6,0,0,0,.255.958,4.2,4.2,0,0,0,1.277,1.708,4.006,4.006,0,0,0,1.178.664,6.621,6.621,0,0,0,.894.243A4.635,4.635,0,0,0,26.2,24.7h1.433a6.088,6.088,0,0,0,.7-.048c.2-.026.412-.061.638-.109a4.961,4.961,0,0,0,.916-.281,7.681,7.681,0,0,0,1.057-.488,5.261,5.261,0,0,0,1.216-.919,6.328,6.328,0,0,0,.8-.993L32.312,24.7H51.967l3.92-17.239H58.76L54.843,24.7h7.023L67.447.583Z" transform="translate(-0.388 -0.394)" fill="url(#radial-gradient-13)"/>
  <path id="Path_1119" data-name="Path 1119" d="M312.637,3.265a4.151,4.151,0,0,0-1.306-1.749l-.042-.035-.045-.029a5.556,5.556,0,0,0-1.018-.536,5.015,5.015,0,0,0-.958-.284,3.767,3.767,0,0,0-.887-.1H276.975l-.8,3.512a3.643,3.643,0,0,0-.23-.824,4.214,4.214,0,0,0-1.3-1.721l-.041-.035-.045-.029A5.635,5.635,0,0,0,273.54.9a5.108,5.108,0,0,0-.958-.284,3.766,3.766,0,0,0-.887-.1h-1.622a6.6,6.6,0,0,0-1.191.1,5.969,5.969,0,0,0-1.057.3,5.656,5.656,0,0,0-1.963,1.219,7.6,7.6,0,0,0-1.127,1.357,5.54,5.54,0,0,0-.638,1.344,4.76,4.76,0,0,0-.192.718l-.7,3.192,1.219-8.2h-6.777a2.751,2.751,0,0,0-2.18,1.255,11.884,11.884,0,0,0-1.085,1.785c-.125.236-.252.485-.374.737s-.233.495-.351.747a6.109,6.109,0,0,0-.262.6,3.284,3.284,0,0,1-.137.319l-.045.086-.032.1c-.1.284-.2.533-.294.734l-.019.042-.016.038c-.211.53-.374.958-.492,1.334-.048.15-.08.243-.1.294l-.048.07-2.27,6.8a3.83,3.83,0,0,0-.185-1.114c-.048-.144-.1-.284-.156-.418.128-.137.249-.281.364-.428a5.451,5.451,0,0,0,.319-.45,3.86,3.86,0,0,0,.281-.524,5.457,5.457,0,0,0,.539-1.52l1.137-4.9a4.626,4.626,0,0,0-.115-2.857,4.15,4.15,0,0,0-1.3-1.749l-.041-.035-.045-.029a5.555,5.555,0,0,0-1.018-.536,5.016,5.016,0,0,0-.958-.284,3.767,3.767,0,0,0-.887-.1h-20l-1.555,6.892h3.741L226.14,24.66h7.116l3.92-17.239h2.439l-3.943,17.236h25.159l.38-2.41a4.271,4.271,0,0,0,2.324,2.043,6.747,6.747,0,0,0,.894.243,4.511,4.511,0,0,0,1.047.125h1.462a3.684,3.684,0,0,0,.824-.1h.038a3.763,3.763,0,0,1,.374-.07,4.468,4.468,0,0,0,.99-.281,7.539,7.539,0,0,0,1.06-.488,5.451,5.451,0,0,0,1.2-.929,5.753,5.753,0,0,0,.638-.782l-.607,2.65h7.119l.268-1.168.262,1.168h7.323l9.813.032v-.032h12.294l1.749-7.735a4.741,4.741,0,0,0-.026-2.554c-.048-.144-.1-.284-.156-.418.128-.137.249-.281.364-.428a5.473,5.473,0,0,0,.319-.45,3.863,3.863,0,0,0,.281-.524,5.453,5.453,0,0,0,.54-1.52l1.137-4.9a4.626,4.626,0,0,0-.109-2.867ZM268.892,15.032l1.082-4.9,4.82-.038-1.133,4.884Zm14.366-2.049L289.1,4.937l-3.662,16.051Zm12.37-5.545H300.1l-.377,1.657h-4.457Zm-1.938,8.546h4.469l-.418,1.832h-4.469Z" transform="translate(-153.948 -0.346)" fill="url(#radial-gradient-14)"/>
  <path id="Path_1120" data-name="Path 1120" d="M60.336,0H46.024L44.466,6.886H48.2L45.849,17.239H40.422L44.345,0H16.837L13.909,6.672,14.027,0H5.481L0,24.128H7.116l.1-.418v.418h12.9l.836-3.7a3.454,3.454,0,0,0,.252.958A4.176,4.176,0,0,0,22.477,23.1a3.914,3.914,0,0,0,1.181.658,6.066,6.066,0,0,0,.894.243,4.588,4.588,0,0,0,1.073.125h1.433a6.087,6.087,0,0,0,.7-.042c.2-.022.412-.061.638-.105a5.031,5.031,0,0,0,.913-.284,7.854,7.854,0,0,0,1.057-.485,5.376,5.376,0,0,0,1.242-.913,6.3,6.3,0,0,0,.8-1l-.638,2.835H51.4L55.32,6.889h2.873L54.27,24.128h7.023L66.877,0Z" transform="translate(0 0.001)" fill="url(#radial-gradient-15)"/>
  <path id="Path_1121" data-name="Path 1121" d="M312.07,2.734A4.181,4.181,0,0,0,310.765.985l-.042-.032-.045-.032a5.851,5.851,0,0,0-1.012-.536A5.655,5.655,0,0,0,308.709.1a3.921,3.921,0,0,0-.881-.1H276.408L275.6,3.51a3.427,3.427,0,0,0-.23-.82,4.2,4.2,0,0,0-1.3-1.724L274.03.934,273.985.9A5.844,5.844,0,0,0,272.97.366a5.655,5.655,0,0,0-.958-.284A3.921,3.921,0,0,0,271.135,0h-1.622a6.646,6.646,0,0,0-1.191.1,6.118,6.118,0,0,0-1.057.3,5.66,5.66,0,0,0-1.973,1.226,7.715,7.715,0,0,0-1.13,1.357,5.621,5.621,0,0,0-.638,1.347,4.562,4.562,0,0,0-.188.715l-.706,3.192L263.853,0h-6.774A2.732,2.732,0,0,0,254.9,1.256a11.1,11.1,0,0,0-1.085,1.785c-.128.233-.255.482-.377.734l-.351.747c-.1.2-.185.4-.262.6a2.632,2.632,0,0,1-.137.319l-.045.089-.032.093c-.1.287-.2.533-.294.737L252.3,6.4l-.016.042c-.211.527-.37.958-.492,1.331-.048.15-.08.243-.1.3l-.045.067-2.279,6.806a3.832,3.832,0,0,0-.185-1.117,4.35,4.35,0,0,0-.156-.418c.128-.137.252-.281.364-.428s.22-.294.319-.45a4.245,4.245,0,0,0,.281-.524,5.558,5.558,0,0,0,.54-1.52l1.136-4.9a4.674,4.674,0,0,0-.105-2.854A4.182,4.182,0,0,0,250.26.985l-.042-.032-.045-.032a5.845,5.845,0,0,0-1.015-.536A5.652,5.652,0,0,0,248.2.1a3.92,3.92,0,0,0-.884-.1H227.3l-1.555,6.886h3.741l-3.92,17.239h7.116l3.92-17.239h2.442l-3.943,17.239h25.162l.358-2.417a4.006,4.006,0,0,0,1.156,1.411,3.909,3.909,0,0,0,1.162.638,6.065,6.065,0,0,0,.894.243,4.47,4.47,0,0,0,1.044.125h1.462a3.683,3.683,0,0,0,.824-.1h.038a3.769,3.769,0,0,1,.386-.083,4.285,4.285,0,0,0,.986-.281,7.71,7.71,0,0,0,1.06-.485,5.383,5.383,0,0,0,1.219-.923,5.778,5.778,0,0,0,.638-.782l-.607,2.65H278l.268-1.165.262,1.165h7.323l9.813.035V24.12h12.291l1.749-7.732a4.723,4.723,0,0,0-.026-2.554,4.358,4.358,0,0,0-.156-.418c.128-.137.252-.281.364-.428a5.19,5.19,0,0,0,.319-.45,3.876,3.876,0,0,0,.284-.524,5.666,5.666,0,0,0,.539-1.52l1.136-4.9a4.672,4.672,0,0,0-.1-2.864ZM268.335,14.486l1.069-4.91,4.82-.038-1.121,4.9ZM282.7,12.436l5.842-8.042-3.674,16.064Zm12.37-5.545h4.488l-.38,1.66H294.71Zm-1.935,8.546h4.469l-.421,1.832h-4.469Z" transform="translate(-153.56 0.002)" fill="url(#radial-gradient-16)"/>
  <path id="Path_1122" data-name="Path 1122" d="M60.336,0H46.024L44.466,6.886H48.2L45.849,17.239H40.422L44.345,0H16.837L13.909,6.672,14.027,0H5.481L0,24.128H7.116l.1-.418v.418h12.9l.836-3.7a3.454,3.454,0,0,0,.252.958A4.176,4.176,0,0,0,22.477,23.1a3.914,3.914,0,0,0,1.181.658,6.066,6.066,0,0,0,.894.243,4.588,4.588,0,0,0,1.073.125h1.433a6.087,6.087,0,0,0,.7-.042c.2-.022.412-.061.638-.105a5.031,5.031,0,0,0,.913-.284,7.854,7.854,0,0,0,1.057-.485,5.376,5.376,0,0,0,1.242-.913,6.3,6.3,0,0,0,.8-1l-.638,2.835H51.4L55.32,6.889h2.873L54.27,24.128h7.023L66.877,0Z" transform="translate(0 0.001)" fill="#fff"/>
  <path id="Path_1123" data-name="Path 1123" d="M312.07,2.734A4.181,4.181,0,0,0,310.765.985l-.042-.032-.045-.032a5.851,5.851,0,0,0-1.012-.536A5.655,5.655,0,0,0,308.709.1a3.921,3.921,0,0,0-.881-.1H276.408L275.6,3.51a3.427,3.427,0,0,0-.23-.82,4.2,4.2,0,0,0-1.3-1.724L274.03.934,273.985.9A5.844,5.844,0,0,0,272.97.366a5.655,5.655,0,0,0-.958-.284A3.921,3.921,0,0,0,271.135,0h-1.622a6.646,6.646,0,0,0-1.191.1,6.118,6.118,0,0,0-1.057.3,5.66,5.66,0,0,0-1.973,1.226,7.715,7.715,0,0,0-1.13,1.357,5.621,5.621,0,0,0-.638,1.347,4.562,4.562,0,0,0-.188.715l-.706,3.192L263.853,0h-6.774A2.732,2.732,0,0,0,254.9,1.256a11.1,11.1,0,0,0-1.085,1.785c-.128.233-.255.482-.377.734l-.351.747c-.1.2-.185.4-.262.6a2.632,2.632,0,0,1-.137.319l-.045.089-.032.093c-.1.287-.2.533-.294.737L252.3,6.4l-.016.042c-.211.527-.37.958-.492,1.331-.048.15-.08.243-.1.3l-.045.067-2.279,6.806a3.832,3.832,0,0,0-.185-1.117,4.35,4.35,0,0,0-.156-.418c.128-.137.252-.281.364-.428s.22-.294.319-.45a4.245,4.245,0,0,0,.281-.524,5.558,5.558,0,0,0,.54-1.52l1.136-4.9a4.674,4.674,0,0,0-.105-2.854A4.182,4.182,0,0,0,250.26.985l-.042-.032-.045-.032a5.845,5.845,0,0,0-1.015-.536A5.652,5.652,0,0,0,248.2.1a3.92,3.92,0,0,0-.884-.1H227.3l-1.555,6.886h3.741l-3.92,17.239h7.116l3.92-17.239h2.442l-3.943,17.239h25.162l.358-2.417a4.006,4.006,0,0,0,1.156,1.411,3.909,3.909,0,0,0,1.162.638,6.065,6.065,0,0,0,.894.243,4.47,4.47,0,0,0,1.044.125h1.462a3.683,3.683,0,0,0,.824-.1h.038a3.769,3.769,0,0,1,.386-.083,4.285,4.285,0,0,0,.986-.281,7.71,7.71,0,0,0,1.06-.485,5.383,5.383,0,0,0,1.219-.923,5.778,5.778,0,0,0,.638-.782l-.607,2.65H278l.268-1.165.262,1.165h7.323l9.813.035V24.12h12.291l1.749-7.732a4.723,4.723,0,0,0-.026-2.554,4.358,4.358,0,0,0-.156-.418c.128-.137.252-.281.364-.428a5.19,5.19,0,0,0,.319-.45,3.876,3.876,0,0,0,.284-.524,5.666,5.666,0,0,0,.539-1.52l1.136-4.9a4.672,4.672,0,0,0-.1-2.864ZM268.335,14.486l1.069-4.91,4.82-.038-1.121,4.9ZM282.7,12.436l5.842-8.042-3.674,16.064Zm12.37-5.545h4.488l-.38,1.66H294.71Zm-1.935,8.546h4.469l-.421,1.832h-4.469Z" transform="translate(-153.56 0.002)" fill="#fff"/>
  <path id="Path_1124" data-name="Path 1124" d="M11.131,5.12h5.59l-.239,13.14L22.25,5.12H27.9L23.156,25.985H19.383l2.956-12.964-6,12.964H13.18l-.118-12.769-2.9,12.769H6.39Z" transform="translate(-4.35 -3.485)"/>
  <path id="Path_1125" data-name="Path 1125" d="M83.67,5.113,79.718,22.377a4.488,4.488,0,0,1-.5,1.3,4.746,4.746,0,0,1-.715.939,3.812,3.812,0,0,1-.849.638,5.934,5.934,0,0,1-.859.4,3.361,3.361,0,0,1-.638.2c-.195.042-.37.07-.527.089a4.606,4.606,0,0,1-.5.029H73.69a2.873,2.873,0,0,1-.725-.089,4.74,4.74,0,0,1-.7-.188,2.286,2.286,0,0,1-.7-.4,2.573,2.573,0,0,1-.8-1.076,3.193,3.193,0,0,1-.032-1.88L74.683,5.11h3.748L74.715,21.471v.192a1.049,1.049,0,0,0,0,.294.514.514,0,0,0,.147.278.524.524,0,0,0,.38.115.718.718,0,0,0,.425-.115,1.143,1.143,0,0,0,.262-.265,1.6,1.6,0,0,0,.163-.278.549.549,0,0,0,.057-.188v-.032L79.893,5.113Z" transform="translate(-48.065 -3.478)"/>
  <path id="Path_1126" data-name="Path 1126" d="M116.356,22.356l-.82,3.63h-9.7L110.581,5.12h3.773l-3.92,17.239Z" transform="translate(-72.052 -3.485)"/>
  <path id="Path_1127" data-name="Path 1127" d="M157.1,5.113l-.82,3.63h-3.451l-3.907,17.236H145.13L149.05,8.74h-3.745l.82-3.63Z" transform="translate(-98.799 -3.478)"/>
  <path id="Path_1128" data-name="Path 1128" d="M180.2,25.985H176.43L181.167,5.12h3.777L180.2,26.014Z" transform="translate(-120.107 -3.485)"/>
  <path id="Path_1129" data-name="Path 1129" d="M243.955,5.12l-.817,3.63h-3.454l-3.92,17.239H232L235.923,8.75h-3.761l.82-3.63Z" transform="translate(-157.937 -3.485)"/>
  <path id="Path_1130" data-name="Path 1130" d="M266.613,5.1h5.207a2.235,2.235,0,0,1,.731.061,3.75,3.75,0,0,1,.69.2,3.966,3.966,0,0,1,.715.38,2.585,2.585,0,0,1,.792,1.082,3.147,3.147,0,0,1,.029,1.874l-1.143,4.916a3.765,3.765,0,0,1-.409,1.14,2.314,2.314,0,0,1-.192.367,3.082,3.082,0,0,1-.217.319,3.994,3.994,0,0,1-.638.658,5.312,5.312,0,0,1-.69.485.563.563,0,0,0,.089.073.39.39,0,0,1,.086.07,2.52,2.52,0,0,1,.661,1.085,3.238,3.238,0,0,1,0,1.7l-1.462,6.468h-3.783l1.58-7.093a1.052,1.052,0,0,0,.029-.543.5.5,0,0,0-.176-.278.4.4,0,0,0-.291-.118h-.792l-1.813,8.019H261.84Zm1.813,8.517h.76a.6.6,0,0,0,.319-.089.862.862,0,0,0,.294-.2,1.02,1.02,0,0,0,.233-.409c0-.019.038-.195.118-.527s.16-.7.249-1.1.176-.766.262-1.1.131-.5.131-.527c.08-.428.029-.712-.147-.846a.425.425,0,0,0-.319-.118h-.773Z" transform="translate(-178.251 -3.469)"/>
  <path id="Path_1131" data-name="Path 1131" d="M307.892,25.985h-3.786l.638-3.63H302.58l-1.229,3.63H297.59l4.565-13.635a3.94,3.94,0,0,0,.22-.587c.105-.319.259-.741.453-1.229.118-.252.233-.546.351-.878a4.912,4.912,0,0,0,.2-.466,5,5,0,0,1,.2-.469l.351-.747c.118-.243.236-.472.351-.686a9.723,9.723,0,0,1,.939-1.551c.319-.409.6-.616.878-.616h4.884Zm-4.105-7.256h1.6l1.66-9.657Z" transform="translate(-202.589 -3.485)"/>
  <path id="Path_1132" data-name="Path 1132" d="M350.589,11.369l-3.777.029.412-1.756a.957.957,0,0,0,0-.54.582.582,0,0,0-.192-.278.705.705,0,0,0-.348-.118.69.69,0,0,0-.425.118,1.147,1.147,0,0,0-.278.278.992.992,0,0,0-.163.319,1.3,1.3,0,0,1-.073.2l-2.6,11.812v.192a1.041,1.041,0,0,0,0,.294.562.562,0,0,0,.147.278.53.53,0,0,0,.38.115.712.712,0,0,0,.425-.115,1.091,1.091,0,0,0,.265-.278,2.541,2.541,0,0,0,.16-.294.588.588,0,0,0,.061-.192l.437-1.871,3.745-.029-.6,2.739a5.135,5.135,0,0,1-.488,1.325,4.3,4.3,0,0,1-.7.958,3.8,3.8,0,0,1-.849.638,6.151,6.151,0,0,1-.865.4,2.8,2.8,0,0,1-.639.192,4.834,4.834,0,0,0-.527.1,2.234,2.234,0,0,1-.469.057h-1.462a2.771,2.771,0,0,1-.7-.089,4.846,4.846,0,0,1-.7-.188,2.287,2.287,0,0,1-.7-.4,2.471,2.471,0,0,1-.817-1.079,3.1,3.1,0,0,1-.029-1.861l3.014-13.606V8.7c0-.019.045-.169.131-.453a4.19,4.19,0,0,1,.469-.958,5.929,5.929,0,0,1,.894-1.066,4,4,0,0,1,1.4-.862,4.727,4.727,0,0,1,.773-.22,5.035,5.035,0,0,1,.894-.073h1.433a2.235,2.235,0,0,1,.731.061,3.743,3.743,0,0,1,.69.2,3.967,3.967,0,0,1,.715.38,2.582,2.582,0,0,1,.792,1.069,3.193,3.193,0,0,1,.038,1.9Z" transform="translate(-230.831 -3.442)"/>
  <path id="Path_1133" data-name="Path 1133" d="M382.486,5.12l-1.376,6,4.1-6h4.332L381.94,15.6l2.809,10.388h-3.9L379.3,19.08l-1.6,6.905h-3.76L378.709,5.12Z" transform="translate(-254.565 -3.485)"/>
  <path id="Path_1134" data-name="Path 1134" d="M427.379,8.75h-4.565L421.7,13.666h4.536l-.82,3.63h-4.536l-1.168,5.089h4.565l-.849,3.63-8.3-.029L419.877,5.12h8.3Z" transform="translate(-282.606 -3.485)"/>
  <path id="Path_1135" data-name="Path 1135" d="M456.16,5.1h5.21a2.235,2.235,0,0,1,.731.061,3.746,3.746,0,0,1,.69.22,3.971,3.971,0,0,1,.715.38,2.587,2.587,0,0,1,.792,1.082,3.149,3.149,0,0,1,.029,1.874l-1.143,4.916a3.766,3.766,0,0,1-.409,1.14,2.318,2.318,0,0,1-.192.367,3.092,3.092,0,0,1-.217.319,4,4,0,0,1-.638.658,5.322,5.322,0,0,1-.69.485.566.566,0,0,0,.089.073.386.386,0,0,1,.086.07,2.484,2.484,0,0,1,.658,1.085,3.2,3.2,0,0,1,0,1.7L460.408,26h-3.78l1.58-7.081a1.085,1.085,0,0,0,.029-.543.5.5,0,0,0-.176-.278.4.4,0,0,0-.291-.118h-.792L455.167,26H451.39Zm1.81,8.517h.76a.6.6,0,0,0,.319-.089.893.893,0,0,0,.294-.2,1.021,1.021,0,0,0,.233-.409c0-.019.038-.195.118-.527s.16-.7.249-1.1.172-.766.262-1.1.131-.5.131-.527c.08-.428.029-.712-.147-.846a.425.425,0,0,0-.319-.118h-.782Z" transform="translate(-307.29 -3.469)"/>
</svg>
