<svg xmlns="http://www.w3.org/2000/svg" xmlns:xlink="http://www.w3.org/1999/xlink" viewBox="0 0 501.37 79.66"><defs><style>.cls-1{fill:#fff;}.cls-2{fill:url(#radial-gradient);}.cls-3{fill:url(#radial-gradient-3);}.cls-4{fill:url(#radial-gradient-5);}.cls-5{fill:url(#radial-gradient-7);}.cls-6{fill:url(#radial-gradient-9);}.cls-7{fill:url(#radial-gradient-11);}.cls-8{fill:url(#radial-gradient-13);}.cls-9{fill:url(#radial-gradient-15);}.cls-10{fill:#67ff17;}</style><radialGradient id="radial-gradient" cx="248.7" cy="37.84" r="177.88" gradientTransform="translate(3.97 3.97)" gradientUnits="userSpaceOnUse"><stop offset="0" stop-color="#929497"/><stop offset="1"/></radialGradient><radialGradient id="radial-gradient-3" cx="248.7" cy="37.84" r="177.88" gradientTransform="translate(3.4 3.4)" xlink:href="#radial-gradient"/><radialGradient id="radial-gradient-5" cx="248.7" cy="37.84" r="177.88" gradientTransform="translate(2.83 2.83)" xlink:href="#radial-gradient"/><radialGradient id="radial-gradient-7" cx="248.7" cy="37.84" r="177.88" gradientTransform="translate(2.27 2.27)" xlink:href="#radial-gradient"/><radialGradient id="radial-gradient-9" cx="248.7" cy="37.84" r="177.88" gradientTransform="translate(1.7 1.7)" xlink:href="#radial-gradient"/><radialGradient id="radial-gradient-11" cx="248.7" cy="37.84" r="177.88" gradientTransform="translate(1.13 1.13)" xlink:href="#radial-gradient"/><radialGradient id="radial-gradient-13" cx="248.7" cy="37.84" r="177.88" gradientTransform="translate(0.57 0.57)" xlink:href="#radial-gradient"/><radialGradient id="radial-gradient-15" cx="248.7" cy="37.84" r="177.88" gradientTransform="matrix(1, 0, 0, 1, 0, 0)" xlink:href="#radial-gradient"/></defs><g id="Layer_2" data-name="Layer 2"><g id="Layer_1-2" data-name="Layer 1"><path class="cls-1" d="M189,0H144.17l-4.88,21.57H151L143.62,54h-17L138.91,0H52.74l-9.17,20.9L43.94,0H17.17L0,75.58H22.29l.3-1.31v1.31H63L65.62,64a10.82,10.82,0,0,0,.79,3,13.08,13.08,0,0,0,4,5.35,12.26,12.26,0,0,0,3.7,2.06,19,19,0,0,0,2.8.76,14.37,14.37,0,0,0,3.36.39h4.49a19.07,19.07,0,0,0,2.18-.13c.62-.07,1.29-.19,2-.33a15.76,15.76,0,0,0,2.86-.89,24.6,24.6,0,0,0,3.31-1.52A16.84,16.84,0,0,0,99,69.83a19.72,19.72,0,0,0,2.52-3.13l-2,8.88H161l12.29-54h9L170,75.58h22L209.49,0Z"/><path class="cls-1" d="M496.53,8.57a13.1,13.1,0,0,0-4.09-5.48l-.13-.1-.14-.1A18.31,18.31,0,0,0,489,1.21a17.71,17.71,0,0,0-3-.89A12.28,12.28,0,0,0,483.24,0l-.76,0H384.82l-2.53,11a10.72,10.72,0,0,0-.72-2.57,13.14,13.14,0,0,0-4.06-5.4l-.14-.1-.14-.1a18.31,18.31,0,0,0-3.18-1.68,17.71,17.71,0,0,0-3-.89A12.28,12.28,0,0,0,368.3,0l-.76,0h-4.32a20.82,20.82,0,0,0-3.73.32,19.16,19.16,0,0,0-3.31.93A17.73,17.73,0,0,0,350,5.09a24.16,24.16,0,0,0-3.54,4.25,17.6,17.6,0,0,0-2,4.22,14.27,14.27,0,0,0-.59,2.24l-2.21,10L345.49,0H324.27c-2.54,0-4.83,1.33-6.81,3.94a34.75,34.75,0,0,0-3.4,5.59c-.4.73-.8,1.51-1.18,2.3l-1.1,2.34c-.31.63-.58,1.26-.82,1.88a8.25,8.25,0,0,1-.43,1l-.14.28-.1.29c-.32.9-.63,1.67-.92,2.31l-.06.12-.05.13c-.66,1.65-1.16,3-1.54,4.17-.15.47-.25.76-.31.93l-.14.21-7.14,21.32a12,12,0,0,0-.58-3.5,13.6,13.6,0,0,0-.49-1.31c.4-.43.79-.88,1.14-1.34s.69-.92,1-1.41a13.34,13.34,0,0,0,.88-1.64,17.41,17.41,0,0,0,1.69-4.76l3.56-15.34A14.64,14.64,0,0,0,307,8.57a13.1,13.1,0,0,0-4.09-5.48l-.13-.1-.14-.1a18.31,18.31,0,0,0-3.18-1.68,17.71,17.71,0,0,0-3-.89A12.28,12.28,0,0,0,293.69,0l-.76,0H231l-4.87,21.57h11.72l-12.28,54h22.29l12.28-54h7.65l-12.35,54h78.82L335.38,68A12.55,12.55,0,0,0,339,72.42a12.25,12.25,0,0,0,3.64,2,19,19,0,0,0,2.8.76,14,14,0,0,0,3.27.39h4.58a11.54,11.54,0,0,0,2.58-.31l.12,0A11.8,11.8,0,0,1,357.2,75a13.42,13.42,0,0,0,3.09-.88,24.15,24.15,0,0,0,3.32-1.52,16.87,16.87,0,0,0,3.82-2.89,18.11,18.11,0,0,0,2-2.45l-1.9,8.3h22.29l.84-3.65.82,3.65h22.94l30.74.11,0-.11h38.5l5.48-24.22a14.79,14.79,0,0,0-.08-8,13.6,13.6,0,0,0-.49-1.31c.4-.43.79-.88,1.14-1.34a16.19,16.19,0,0,0,1-1.41,12.14,12.14,0,0,0,.89-1.64,17.75,17.75,0,0,0,1.69-4.76l3.56-15.34A14.64,14.64,0,0,0,496.53,8.57Zm-137,36.81L362.88,30l15.1-.12-3.51,15.35Zm45-6.42,18.3-25.19L411.32,64.09Zm38.75-17.37h14.06l-1.19,5.2h-14Zm-6.06,26.77h14L449.9,54.1h-14Z"/><path class="cls-2" d="M193,4H148.14l-4.88,21.57H155L147.59,58h-17L142.88,4H56.71l-9.17,20.9L47.91,4H21.14L4,79.55H26.26l.3-1.32v1.32H67L69.59,68a10.91,10.91,0,0,0,.79,3,13.14,13.14,0,0,0,4,5.35,12.26,12.26,0,0,0,3.7,2.06,20.35,20.35,0,0,0,2.8.76,14.37,14.37,0,0,0,3.36.39h4.49a19.07,19.07,0,0,0,2.18-.13c.62-.08,1.29-.19,2-.34a15.54,15.54,0,0,0,2.87-.88,24.6,24.6,0,0,0,3.31-1.52,16.6,16.6,0,0,0,3.81-2.89,19.82,19.82,0,0,0,2.52-3.13l-2,8.89H165l12.29-54h9L174,79.55h22L213.46,4Z"/><path class="cls-2" d="M500.49,12.54a13,13,0,0,0-4.08-5.48l-.13-.1-.14-.1A17.65,17.65,0,0,0,493,5.18a16,16,0,0,0-3-.89A12.28,12.28,0,0,0,487.21,4l-.76,0H388.78l-2.52,11a10.72,10.72,0,0,0-.72-2.57,13.16,13.16,0,0,0-4.07-5.4l-.13-.1-.14-.1A17.65,17.65,0,0,0,378,5.18a16,16,0,0,0-3-.89A12.28,12.28,0,0,0,372.27,4l-.76,0h-4.32a20.66,20.66,0,0,0-3.73.32,18.67,18.67,0,0,0-3.31.93A17.72,17.72,0,0,0,354,9.06a24.15,24.15,0,0,0-3.53,4.25,17.35,17.35,0,0,0-2,4.21,14.61,14.61,0,0,0-.59,2.25l-2.21,10L349.46,4H328.23c-2.53,0-4.82,1.33-6.8,3.93a35.33,35.33,0,0,0-3.4,5.6c-.4.73-.8,1.51-1.18,2.3s-.73,1.55-1.1,2.34a20.23,20.23,0,0,0-.82,1.88,10.25,10.25,0,0,1-.43,1l-.14.28-.1.29c-.32.89-.63,1.67-.92,2.31l-.06.12,0,.13c-.66,1.65-1.16,3-1.54,4.17-.15.47-.25.76-.31.93l-.14.21L304.1,50.79a12,12,0,0,0-.58-3.5A13.6,13.6,0,0,0,303,46c.4-.43.79-.88,1.14-1.34a16.19,16.19,0,0,0,1-1.41,12.11,12.11,0,0,0,.88-1.64,17.09,17.09,0,0,0,1.69-4.76l3.56-15.34a14.57,14.57,0,0,0-.35-8.95,13.12,13.12,0,0,0-4.09-5.48l-.13-.1-.14-.1a17.65,17.65,0,0,0-3.18-1.68,16,16,0,0,0-3-.89A12.28,12.28,0,0,0,297.66,4l-.76,0H235L230.1,25.56h11.72l-12.28,54h22.29l12.28-54h7.64l-12.34,54h78.81L339.35,72A12.51,12.51,0,0,0,343,76.38a12.23,12.23,0,0,0,3.65,2,20.35,20.35,0,0,0,2.8.76,14,14,0,0,0,3.27.39h4.58a11.54,11.54,0,0,0,2.58-.31l.12,0a11.56,11.56,0,0,1,1.17-.23,14,14,0,0,0,3.1-.88,23.62,23.62,0,0,0,3.32-1.53,16.27,16.27,0,0,0,3.81-2.88,18,18,0,0,0,2-2.45l-1.9,8.3H393.8l.84-3.66.82,3.66H418.4l30.74.11,0-.11h38.5l5.48-24.22a14.79,14.79,0,0,0-.08-8,13.6,13.6,0,0,0-.49-1.31c.4-.43.79-.88,1.14-1.34a16.19,16.19,0,0,0,1-1.41,12.11,12.11,0,0,0,.88-1.64,17.09,17.09,0,0,0,1.69-4.76l3.56-15.34A14.49,14.49,0,0,0,500.49,12.54Zm-137,36.81L366.85,34l15.1-.12-3.51,15.35Zm45-6.42,18.3-25.19L415.29,68.06Zm38.75-17.37H461.3l-1.18,5.2H446.07Zm-6.06,26.77h14l-1.32,5.74h-14Z"/><path class="cls-3" d="M192.4,3.42H147.57L142.7,25h11.72L147,57.41H130l12.28-54H56.14L47,24.32l.37-20.9H20.57L3.4,79H25.69l.3-1.31V79H66.39L69,67.41a11,11,0,0,0,.79,3,13.13,13.13,0,0,0,4,5.34,12,12,0,0,0,3.7,2.06,20.46,20.46,0,0,0,2.8.77,14.92,14.92,0,0,0,3.36.38h4.49a18.94,18.94,0,0,0,2.18-.13c.63-.07,1.29-.18,2-.33a15.76,15.76,0,0,0,2.86-.89,24,24,0,0,0,3.31-1.52,17.12,17.12,0,0,0,3.82-2.88,19.67,19.67,0,0,0,2.51-3.13l-2,8.88h61.58l12.28-54h9L173.44,79h22L212.89,3.42Z"/><path class="cls-3" d="M499.93,12a13.17,13.17,0,0,0-4.08-5.48l-.14-.1-.14-.09a17,17,0,0,0-6.15-2.58,12.22,12.22,0,0,0-2.78-.32l-.76,0H388.22l-2.53,11.05a10.24,10.24,0,0,0-.72-2.58,13.06,13.06,0,0,0-4.06-5.4l-.14-.1-.14-.09a17.7,17.7,0,0,0-3.18-1.69,17.44,17.44,0,0,0-3-.89,12.22,12.22,0,0,0-2.78-.32l-.76,0h-4.32a20.82,20.82,0,0,0-3.73.32,19.71,19.71,0,0,0-3.3.93,17.68,17.68,0,0,0-6.15,3.82,25.07,25.07,0,0,0-3.54,4.25,18,18,0,0,0-2,4.22,14,14,0,0,0-.59,2.25l-2.2,9.94,3.82-25.73H327.67c-2.53,0-4.83,1.33-6.81,3.94a35.49,35.49,0,0,0-3.4,5.59c-.4.73-.79,1.51-1.18,2.31l-1.1,2.33a19.18,19.18,0,0,0-.81,1.89c-.12.31-.27.64-.44,1l-.14.28-.1.29a23.6,23.6,0,0,1-.92,2.31l-.06.12,0,.13c-.66,1.65-1.16,3-1.54,4.17-.15.47-.25.76-.31.93l-.14.21-7.14,21.32a12.45,12.45,0,0,0-.57-3.5c-.15-.45-.32-.89-.5-1.31a15.85,15.85,0,0,0,1.14-1.34c.36-.44.69-.92,1-1.4a14.27,14.27,0,0,0,.88-1.65,17.3,17.3,0,0,0,1.69-4.76l3.56-15.34c.79-3.53.68-6.46-.36-9a13.17,13.17,0,0,0-4.08-5.48l-.14-.1L306,6.3a17,17,0,0,0-6.15-2.58,12.22,12.22,0,0,0-2.78-.32l-.76,0H234.4L229.53,25h11.73L229,79h22.29l12.29-54h7.64L258.85,79h78.81l1.12-7.55a12.55,12.55,0,0,0,3.65,4.39,12.15,12.15,0,0,0,3.64,2,20.46,20.46,0,0,0,2.8.77,14.53,14.53,0,0,0,3.27.38h4.58a12,12,0,0,0,2.58-.3l.12,0a11.8,11.8,0,0,1,1.18-.23,13.49,13.49,0,0,0,3.1-.88A24.6,24.6,0,0,0,367,76a16.9,16.9,0,0,0,5.83-5.34l-1.9,8.3h22.3l.83-3.65.82,3.65h22.94l30.74.11,0-.11h38.5l5.49-24.22a15,15,0,0,0-.08-8c-.15-.45-.32-.89-.5-1.31a15.85,15.85,0,0,0,1.14-1.34c.36-.44.69-.92,1-1.4A14.27,14.27,0,0,0,495,41a17.3,17.3,0,0,0,1.69-4.76l3.56-15.34C501.08,17.39,501,14.46,499.93,12Zm-137,36.81,3.38-15.35,15.1-.12-3.5,15.36Zm45-6.42,18.3-25.19-11.5,50.32ZM446.68,25h14.06l-1.19,5.19h-14Zm-6.06,26.76h14l-1.31,5.74h-14Z"/><path class="cls-4" d="M191.83,2.86H147l-4.87,21.57h11.72l-7.39,32.42h-17l12.28-54H55.57L46.4,23.76l.38-20.9H20L2.83,78.42H25.12l.3-1.32,0,1.32H65.82l2.63-11.58a11.37,11.37,0,0,0,.79,3,13.23,13.23,0,0,0,4,5.35,12.35,12.35,0,0,0,3.7,2.05,20.46,20.46,0,0,0,2.8.77,14.49,14.49,0,0,0,3.36.39h4.5a21.84,21.84,0,0,0,2.18-.13c.62-.08,1.28-.19,2-.34a15.29,15.29,0,0,0,2.86-.89A23.51,23.51,0,0,0,98,75.54a17.3,17.3,0,0,0,3.81-2.88,19.23,19.23,0,0,0,2.51-3.13l-2,8.89h61.58l12.28-54h9l-12.26,54h22L212.32,2.86Z"/><path class="cls-4" d="M499.36,11.4a13.23,13.23,0,0,0-4.08-5.48l-.14-.1L495,5.73a17.49,17.49,0,0,0-6.15-2.58,12.22,12.22,0,0,0-2.78-.32q-.37,0-.75,0H387.65l-2.52,11a11.43,11.43,0,0,0-.72-2.58,13.23,13.23,0,0,0-4.07-5.4l-.13-.1-.14-.09a16.81,16.81,0,0,0-3.19-1.68,16.4,16.4,0,0,0-3-.9,12.22,12.22,0,0,0-2.78-.32q-.37,0-.75,0h-4.32a20.69,20.69,0,0,0-3.73.31,18.7,18.7,0,0,0-3.31.94,17.72,17.72,0,0,0-6.15,3.82,23.8,23.8,0,0,0-3.53,4.25,17,17,0,0,0-2,4.21,14.61,14.61,0,0,0-.6,2.25l-2.2,9.94,3.82-25.72H327.1c-2.53,0-4.82,1.32-6.81,3.93a36,36,0,0,0-3.4,5.59q-.6,1.11-1.17,2.31c-.37.76-.74,1.54-1.1,2.34a19.13,19.13,0,0,0-.82,1.88c-.12.31-.27.64-.43,1l-.14.28-.11.3a23.32,23.32,0,0,1-.92,2.3l-.05.13,0,.12c-.66,1.65-1.17,3-1.54,4.18-.15.46-.25.75-.32.92l-.14.22L303,49.65a12.32,12.32,0,0,0-.58-3.49,13.83,13.83,0,0,0-.5-1.32c.41-.43.79-.88,1.15-1.34a16,16,0,0,0,1-1.4,12.74,12.74,0,0,0,.88-1.64,17.09,17.09,0,0,0,1.69-4.76l3.56-15.35a14.49,14.49,0,0,0-.36-9,13.15,13.15,0,0,0-4.08-5.48l-.14-.1-.14-.09a17.49,17.49,0,0,0-6.15-2.58,12.22,12.22,0,0,0-2.78-.32q-.37,0-.75,0H233.84L229,24.43h11.73l-12.29,54h22.29l12.29-54h7.64l-12.34,54h78.81l1.12-7.56a12.57,12.57,0,0,0,3.65,4.39,12.15,12.15,0,0,0,3.64,2,20.46,20.46,0,0,0,2.8.77,14,14,0,0,0,3.27.39h4.59a12.15,12.15,0,0,0,2.58-.31l.12,0a11.24,11.24,0,0,1,1.17-.22,13.54,13.54,0,0,0,3.1-.89,23.42,23.42,0,0,0,3.31-1.52,17.12,17.12,0,0,0,3.82-2.88,17.54,17.54,0,0,0,2-2.46l-1.9,8.31h22.29l.84-3.66.82,3.66h22.93l30.75.11,0-.1h38.51L492,54.19a14.85,14.85,0,0,0-.08-8,13.83,13.83,0,0,0-.5-1.32c.41-.43.79-.88,1.15-1.34a16,16,0,0,0,1-1.4,12.74,12.74,0,0,0,.88-1.64,17.09,17.09,0,0,0,1.69-4.76l3.56-15.35A14.49,14.49,0,0,0,499.36,11.4Zm-137,36.82,3.38-15.36,15.11-.11L377.31,48.1Zm45-6.42,18.3-25.2-11.5,50.33Zm38.76-17.37h14.05L459,29.62h-14Zm-6.07,26.76h14l-1.31,5.75h-14Z"/><path class="cls-5" d="M191.27,2.29H146.43l-4.87,21.57h11.73l-7.4,32.42h-17l12.29-54H55l-9.17,20.9.37-20.9H19.43L2.27,77.85H24.56l.3-1.32v1.32H65.25l2.63-11.58a11.28,11.28,0,0,0,.8,3,13.14,13.14,0,0,0,4,5.35,12.47,12.47,0,0,0,3.7,2.06,20.23,20.23,0,0,0,2.79.76,14.52,14.52,0,0,0,3.37.39H87a19.07,19.07,0,0,0,2.18-.13c.62-.08,1.29-.19,2-.34a15.54,15.54,0,0,0,2.87-.88A24.6,24.6,0,0,0,97.41,75a16.82,16.82,0,0,0,3.81-2.89A19.82,19.82,0,0,0,103.74,69l-2,8.89h61.57l12.29-54h9l-12.27,54h22L211.76,2.29Z"/><path class="cls-5" d="M498.79,10.84a13,13,0,0,0-4.08-5.48l-.13-.1-.14-.1a17.65,17.65,0,0,0-3.18-1.68,16,16,0,0,0-3-.89,12.35,12.35,0,0,0-2.78-.32l-.76,0H387.08l-2.52,11a11.2,11.2,0,0,0-.72-2.57,13.16,13.16,0,0,0-4.07-5.4l-.13-.1-.14-.1a17.65,17.65,0,0,0-3.18-1.68,16,16,0,0,0-3-.89,12.28,12.28,0,0,0-2.78-.32l-.76,0h-4.32a20.66,20.66,0,0,0-3.73.32,19,19,0,0,0-9.46,4.75,24.15,24.15,0,0,0-3.53,4.25,17.35,17.35,0,0,0-2,4.21,14.91,14.91,0,0,0-.6,2.25l-2.2,10,3.83-25.73H326.53c-2.53,0-4.82,1.32-6.8,3.93a35.33,35.33,0,0,0-3.4,5.6c-.4.73-.8,1.51-1.18,2.3s-.73,1.55-1.1,2.34a20.23,20.23,0,0,0-.82,1.88,10.25,10.25,0,0,1-.43,1l-.14.28-.1.29c-.32.89-.63,1.67-.92,2.31l-.06.12-.05.12c-.66,1.66-1.16,3-1.54,4.18-.15.47-.25.76-.31.92l-.14.22L302.4,49.08a12,12,0,0,0-.58-3.49c-.15-.45-.31-.89-.49-1.31.4-.43.79-.88,1.14-1.34s.69-.92,1-1.41a12.11,12.11,0,0,0,.88-1.64A17.09,17.09,0,0,0,306,35.13l3.56-15.34a14.49,14.49,0,0,0-.36-8.95,13,13,0,0,0-4.08-5.48l-.13-.1-.14-.1a17.65,17.65,0,0,0-3.18-1.68,16,16,0,0,0-3-.89A12.28,12.28,0,0,0,296,2.27l-.76,0H233.27L228.4,23.86h11.72l-12.28,54h22.29l12.28-54h7.64l-12.34,54h78.81l1.13-7.55a12.51,12.51,0,0,0,3.64,4.38,12.23,12.23,0,0,0,3.65,2,20.62,20.62,0,0,0,2.79.76,14.13,14.13,0,0,0,3.28.39h4.58a11.54,11.54,0,0,0,2.58-.31l.12,0c.33-.08.73-.15,1.17-.22a14,14,0,0,0,3.1-.88,23.62,23.62,0,0,0,3.32-1.53A16.77,16.77,0,0,0,369.69,72a18,18,0,0,0,2-2.45l-1.9,8.3H392.1l.84-3.66.82,3.66H416.7l30.74.11,0-.11H486l5.48-24.22a14.79,14.79,0,0,0-.08-8c-.15-.45-.31-.89-.49-1.31.4-.43.79-.88,1.14-1.34s.69-.92,1-1.41a12.11,12.11,0,0,0,.88-1.64,17.09,17.09,0,0,0,1.69-4.76l3.56-15.34A14.49,14.49,0,0,0,498.79,10.84Zm-137,36.81,3.38-15.35,15.1-.12-3.51,15.35Zm45-6.42L425.1,16,413.59,66.36Zm38.75-17.37H459.6l-1.18,5.2H444.37Zm-6.07,26.77h14l-1.32,5.74h-14Z"/><path class="cls-6" d="M190.7,1.72H145.87L141,23.29h11.73l-7.39,32.42h-17l12.28-54H54.44l-9.17,20.9.37-20.9H18.87L1.7,77.28H24l.3-1.31v1.31H64.69L67.32,65.7a10.82,10.82,0,0,0,.79,3,13.17,13.17,0,0,0,4,5.35,12,12,0,0,0,3.7,2.06,20.46,20.46,0,0,0,2.8.77,14.92,14.92,0,0,0,3.36.38h4.49a18.94,18.94,0,0,0,2.18-.13c.62-.07,1.29-.18,2-.33a15.76,15.76,0,0,0,2.86-.89,24.6,24.6,0,0,0,3.31-1.52,16.84,16.84,0,0,0,3.81-2.88,19.17,19.17,0,0,0,2.52-3.13l-2,8.88h61.58l12.28-54h9l-12.27,54h22L211.19,1.72Z"/><path class="cls-6" d="M498.23,10.27a13.17,13.17,0,0,0-4.08-5.48l-.14-.1-.14-.09A17,17,0,0,0,487.72,2a12.28,12.28,0,0,0-2.78-.32l-.76,0H386.52l-2.53,11a10.72,10.72,0,0,0-.72-2.57,13.06,13.06,0,0,0-4.06-5.4l-.14-.1-.14-.09A17,17,0,0,0,372.78,2,12.28,12.28,0,0,0,370,1.7l-.76,0h-4.32a20.82,20.82,0,0,0-3.73.32,18.81,18.81,0,0,0-3.3.93,17.68,17.68,0,0,0-6.15,3.82A24.6,24.6,0,0,0,348.2,11a17.6,17.6,0,0,0-2,4.22,14,14,0,0,0-.59,2.25l-2.2,9.94,3.82-25.73H326c-2.53,0-4.83,1.33-6.81,3.94a34.75,34.75,0,0,0-3.4,5.59c-.4.73-.79,1.51-1.18,2.3l-1.1,2.34c-.31.63-.58,1.26-.82,1.89a8.9,8.9,0,0,1-.43,1l-.14.28-.1.29c-.32.9-.63,1.67-.92,2.31l-.06.12-.05.13c-.66,1.65-1.16,3-1.54,4.17-.15.47-.25.76-.31.93l-.14.21-7.14,21.32a12.39,12.39,0,0,0-.57-3.5c-.15-.45-.32-.89-.5-1.31a15.85,15.85,0,0,0,1.14-1.34,16.28,16.28,0,0,0,1-1.41,13.34,13.34,0,0,0,.88-1.64,17.3,17.3,0,0,0,1.69-4.76L309,19.22a14.64,14.64,0,0,0-.36-8.95,13.17,13.17,0,0,0-4.08-5.48l-.14-.1-.14-.09A17,17,0,0,0,298.17,2a12.28,12.28,0,0,0-2.78-.32l-.76,0H232.7l-4.87,21.57h11.72l-12.28,54h22.29l12.28-54h7.65l-12.34,54H336l1.12-7.55a12.55,12.55,0,0,0,3.65,4.39,12.15,12.15,0,0,0,3.64,2,20.46,20.46,0,0,0,2.8.77,14.53,14.53,0,0,0,3.27.38H355a12,12,0,0,0,2.58-.3l.12,0a11.8,11.8,0,0,1,1.18-.23,13.49,13.49,0,0,0,3.1-.88,24.6,24.6,0,0,0,3.31-1.52,16.87,16.87,0,0,0,3.82-2.89,18.11,18.11,0,0,0,2-2.45l-1.9,8.3h22.29l.84-3.65.82,3.65h22.94l30.74.11,0-.11h38.5l5.48-24.22a14.9,14.9,0,0,0-.07-8c-.15-.45-.32-.89-.5-1.31a15.85,15.85,0,0,0,1.14-1.34,16.28,16.28,0,0,0,1-1.41,13.34,13.34,0,0,0,.88-1.64A17.3,17.3,0,0,0,495,34.56l3.56-15.34A14.64,14.64,0,0,0,498.23,10.27Zm-137,36.81,3.38-15.35,15.1-.12L376.17,47Zm45-6.42,18.3-25.19L413,65.79ZM445,23.29H459l-1.19,5.2h-14Zm-6.06,26.77h14l-1.31,5.74h-14Z"/><path class="cls-7" d="M190.13,1.16H145.3l-4.87,21.57h11.72l-7.39,32.41h-17L140,1.16H53.87L44.7,22.05l.38-20.89H18.3L1.13,76.72H23.42l.3-1.32v1.32H64.12l2.63-11.58a11.37,11.37,0,0,0,.79,3,13.13,13.13,0,0,0,4,5.34,12.16,12.16,0,0,0,3.7,2.06,20.46,20.46,0,0,0,2.8.77,14.49,14.49,0,0,0,3.36.39h4.49a21.86,21.86,0,0,0,2.19-.13c.62-.08,1.28-.19,2-.34A15.52,15.52,0,0,0,93,75.36a23.51,23.51,0,0,0,3.32-1.52A17.3,17.3,0,0,0,100.09,71a19.23,19.23,0,0,0,2.51-3.13l-2,8.89h61.58l12.28-54h9l-12.26,54h22L210.62,1.16Z"/><path class="cls-7" d="M497.66,9.7a13.23,13.23,0,0,0-4.08-5.48l-.14-.1L493.3,4a17,17,0,0,0-3.18-1.68,16.64,16.64,0,0,0-3-.9,12.22,12.22,0,0,0-2.78-.32q-.37,0-.75,0H386l-2.52,11a11.43,11.43,0,0,0-.72-2.58,13.23,13.23,0,0,0-4.07-5.4l-.14-.1L378.37,4a17.12,17.12,0,0,0-3.19-1.68,16.4,16.4,0,0,0-3-.9,12.22,12.22,0,0,0-2.78-.32q-.37,0-.75,0h-4.33a20.66,20.66,0,0,0-3.72.31,18.7,18.7,0,0,0-3.31.94,17.72,17.72,0,0,0-6.15,3.82,24.11,24.11,0,0,0-3.53,4.24,17.23,17.23,0,0,0-2,4.22,14.61,14.61,0,0,0-.6,2.25l-2.2,9.94,3.82-25.72H325.4c-2.53,0-4.82,1.32-6.81,3.93a35.49,35.49,0,0,0-3.4,5.59q-.6,1.11-1.17,2.31c-.37.76-.74,1.54-1.1,2.34a19.13,19.13,0,0,0-.82,1.88c-.12.31-.27.64-.43,1l-.14.28-.11.3a24.37,24.37,0,0,1-.92,2.3l-.05.12-.05.13c-.67,1.65-1.17,3-1.54,4.18-.15.46-.25.75-.32.92l-.14.21L301.27,48a12.68,12.68,0,0,0-.58-3.49,13.83,13.83,0,0,0-.5-1.32c.41-.43.79-.88,1.15-1.34a16,16,0,0,0,1-1.4,12.24,12.24,0,0,0,.88-1.65A16.91,16.91,0,0,0,304.91,34l3.56-15.35a14.57,14.57,0,0,0-.36-8.95A13.23,13.23,0,0,0,304,4.22l-.14-.1L303.75,4a17.49,17.49,0,0,0-6.15-2.58,12.22,12.22,0,0,0-2.78-.32q-.37,0-.75,0H232.14l-4.88,21.57H239l-12.29,54H249l12.29-54h7.64l-12.34,54h78.81l1.12-7.56a12.46,12.46,0,0,0,3.65,4.39,12.15,12.15,0,0,0,3.64,2,20.46,20.46,0,0,0,2.8.77,14,14,0,0,0,3.27.39h4.59a12.15,12.15,0,0,0,2.58-.31l.12,0c.33-.08.72-.16,1.17-.23a13,13,0,0,0,3.1-.88,24.6,24.6,0,0,0,3.31-1.52,17.12,17.12,0,0,0,3.82-2.88,16.81,16.81,0,0,0,2-2.46l-1.89,8.31H391l.83-3.66.83,3.66h22.93l30.75.11,0-.1h38.51l5.48-24.23a14.85,14.85,0,0,0-.08-8,13.83,13.83,0,0,0-.5-1.32,15.85,15.85,0,0,0,1.14-1.34,14.24,14.24,0,0,0,1-1.4,13.49,13.49,0,0,0,.88-1.65A16.91,16.91,0,0,0,494.46,34L498,18.65A14.57,14.57,0,0,0,497.66,9.7Zm-137,36.81L364,31.16l15.11-.11L375.61,46.4Zm45-6.41L424,14.9l-11.5,50.33Zm38.76-17.37h14.05l-1.19,5.19h-14Zm-6.07,26.76h14L451,55.24H437Z"/><path class="cls-8" d="M189.57.59H144.73l-4.87,21.57h11.72l-7.39,32.42h-17l12.29-54H53.31l-9.17,20.9L44.51.59H17.73L.57,76.15H22.86l.29-1.32,0,1.32H63.55l2.63-11.58a11.28,11.28,0,0,0,.8,3,13.14,13.14,0,0,0,4,5.35A12.55,12.55,0,0,0,74.67,75a20.74,20.74,0,0,0,2.8.76,14.52,14.52,0,0,0,3.37.39h4.49A19.07,19.07,0,0,0,87.51,76c.62-.08,1.29-.19,2-.34a15.54,15.54,0,0,0,2.87-.88,24.06,24.06,0,0,0,3.31-1.53,16.48,16.48,0,0,0,3.81-2.88A19.82,19.82,0,0,0,102,67.26l-2,8.89h61.57l12.28-54h9l-12.27,54h22L210.06.59Z"/><path class="cls-8" d="M497.09,9.14A13,13,0,0,0,493,3.66l-.13-.11-.14-.09a17.4,17.4,0,0,0-3.19-1.68,15.71,15.71,0,0,0-3-.89,11.8,11.8,0,0,0-2.78-.32c-.25,0-.51,0-.76,0H385.38l-2.52,11a11.43,11.43,0,0,0-.72-2.58,13.2,13.2,0,0,0-4.07-5.39l-.13-.11-.14-.09a17.65,17.65,0,0,0-3.18-1.68,16,16,0,0,0-3-.89,11.8,11.8,0,0,0-2.78-.32c-.25,0-.51,0-.76,0h-4.32a20.69,20.69,0,0,0-3.73.31,18.7,18.7,0,0,0-3.31.94,17.72,17.72,0,0,0-6.15,3.82,23.8,23.8,0,0,0-3.53,4.25,17.35,17.35,0,0,0-2,4.21,14.91,14.91,0,0,0-.6,2.25l-2.2,10L346.06.59H324.83C322.3.59,320,1.91,318,4.52a37.24,37.24,0,0,0-3.4,5.59c-.39.74-.79,1.52-1.17,2.31s-.73,1.55-1.1,2.34a19.13,19.13,0,0,0-.82,1.88,10.25,10.25,0,0,1-.43,1l-.14.27-.1.3c-.32.89-.63,1.67-.92,2.3l-.06.13-.05.12c-.66,1.66-1.17,3-1.54,4.18-.15.47-.25.76-.31.92l-.15.22L300.7,47.38a12,12,0,0,0-.58-3.49c-.15-.45-.31-.89-.49-1.31.4-.43.78-.88,1.14-1.34s.69-.92,1-1.41a12.11,12.11,0,0,0,.88-1.64,17.09,17.09,0,0,0,1.69-4.76l3.56-15.34a14.49,14.49,0,0,0-.36-8.95,13,13,0,0,0-4.08-5.48l-.13-.11-.14-.09A17.4,17.4,0,0,0,300,1.78a15.71,15.71,0,0,0-3-.89,11.8,11.8,0,0,0-2.78-.32c-.25,0-.51,0-.76,0H231.57L226.7,22.16h11.72l-12.28,54h22.29l12.28-54h7.64L256,76.15h78.81L336,68.6a13.38,13.38,0,0,0,7.28,6.4,21.14,21.14,0,0,0,2.8.76,14.13,14.13,0,0,0,3.28.39h4.58a11.54,11.54,0,0,0,2.58-.31l.12,0a11.77,11.77,0,0,1,1.17-.22,14,14,0,0,0,3.1-.88,23.62,23.62,0,0,0,3.32-1.53A17.07,17.07,0,0,0,368,70.3a18,18,0,0,0,2-2.45l-1.9,8.3H390.4l.84-3.66.82,3.66H415l30.74.1,0-.1h38.51l5.48-24.23a14.85,14.85,0,0,0-.08-8c-.15-.45-.31-.89-.49-1.31.4-.43.78-.88,1.14-1.34s.69-.92,1-1.41a12.11,12.11,0,0,0,.88-1.64,17.09,17.09,0,0,0,1.69-4.76l3.56-15.34A14.49,14.49,0,0,0,497.09,9.14ZM360.06,46l3.39-15.35,15.1-.12L375,45.83Zm45-6.42,18.3-25.2L411.89,64.66Zm38.75-17.37h14l-1.18,5.19H442.67Zm-6.07,26.77h14l-1.31,5.74h-14Z"/><path class="cls-9" d="M189,0H144.17l-4.88,21.57H151L143.62,54h-17L138.91,0H52.74l-9.17,20.9L43.94,0H17.17L0,75.58H22.29l.3-1.31v1.31H63L65.62,64a10.82,10.82,0,0,0,.79,3,13.08,13.08,0,0,0,4,5.35,12.26,12.26,0,0,0,3.7,2.06,19,19,0,0,0,2.8.76,14.37,14.37,0,0,0,3.36.39h4.49a19.07,19.07,0,0,0,2.18-.13c.62-.07,1.29-.19,2-.33a15.76,15.76,0,0,0,2.86-.89,24.6,24.6,0,0,0,3.31-1.52A16.84,16.84,0,0,0,99,69.83a19.72,19.72,0,0,0,2.52-3.13l-2,8.88H161l12.29-54h9L170,75.58h22L209.49,0Z"/><path class="cls-9" d="M496.53,8.57a13.1,13.1,0,0,0-4.09-5.48l-.13-.1-.14-.1A18.31,18.31,0,0,0,489,1.21a17.71,17.71,0,0,0-3-.89A12.28,12.28,0,0,0,483.24,0l-.76,0H384.82l-2.53,11a10.72,10.72,0,0,0-.72-2.57,13.14,13.14,0,0,0-4.06-5.4l-.14-.1-.14-.1a18.31,18.31,0,0,0-3.18-1.68,17.71,17.71,0,0,0-3-.89A12.28,12.28,0,0,0,368.3,0l-.76,0h-4.32a20.82,20.82,0,0,0-3.73.32,19.16,19.16,0,0,0-3.31.93A17.73,17.73,0,0,0,350,5.09a24.16,24.16,0,0,0-3.54,4.25,17.6,17.6,0,0,0-2,4.22,14.27,14.27,0,0,0-.59,2.24l-2.21,10L345.49,0H324.27c-2.54,0-4.83,1.33-6.81,3.94a34.75,34.75,0,0,0-3.4,5.59c-.4.73-.8,1.51-1.18,2.3l-1.1,2.34c-.31.63-.58,1.26-.82,1.88a8.25,8.25,0,0,1-.43,1l-.14.28-.1.29c-.32.9-.63,1.67-.92,2.31l-.06.12-.05.13c-.66,1.65-1.16,3-1.54,4.17-.15.47-.25.76-.31.93l-.14.21-7.14,21.32a12,12,0,0,0-.58-3.5,13.6,13.6,0,0,0-.49-1.31c.4-.43.79-.88,1.14-1.34s.69-.92,1-1.41a13.34,13.34,0,0,0,.88-1.64,17.41,17.41,0,0,0,1.69-4.76l3.56-15.34A14.64,14.64,0,0,0,307,8.57a13.1,13.1,0,0,0-4.09-5.48l-.13-.1-.14-.1a18.31,18.31,0,0,0-3.18-1.68,17.71,17.71,0,0,0-3-.89A12.28,12.28,0,0,0,293.69,0l-.76,0H231l-4.87,21.57h11.72l-12.28,54h22.29l12.28-54h7.65l-12.35,54h78.82L335.38,68A12.55,12.55,0,0,0,339,72.42a12.25,12.25,0,0,0,3.64,2,19,19,0,0,0,2.8.76,14,14,0,0,0,3.27.39h4.58a11.54,11.54,0,0,0,2.58-.31l.12,0A11.8,11.8,0,0,1,357.2,75a13.42,13.42,0,0,0,3.09-.88,24.15,24.15,0,0,0,3.32-1.52,16.87,16.87,0,0,0,3.82-2.89,18.11,18.11,0,0,0,2-2.45l-1.9,8.3h22.29l.84-3.65.82,3.65h22.94l30.74.11,0-.11h38.5l5.48-24.22a14.79,14.79,0,0,0-.08-8,13.6,13.6,0,0,0-.49-1.31c.4-.43.79-.88,1.14-1.34a16.19,16.19,0,0,0,1-1.41,12.14,12.14,0,0,0,.89-1.64,17.75,17.75,0,0,0,1.69-4.76l3.56-15.34A14.64,14.64,0,0,0,496.53,8.57Zm-137,36.81L362.88,30l15.1-.12-3.51,15.35Zm45-6.42,18.3-25.19L411.32,64.09Zm38.75-17.37h14.06l-1.19,5.2h-14Zm-6.06,26.77h14L449.9,54.1h-14Z"/><path class="cls-1" d="M189,0H144.17l-4.88,21.57H151L143.62,54h-17L138.91,0H52.74l-9.17,20.9L43.94,0H17.17L0,75.58H22.29l.3-1.31v1.31H63L65.62,64a10.82,10.82,0,0,0,.79,3,13.08,13.08,0,0,0,4,5.35,12.26,12.26,0,0,0,3.7,2.06,19,19,0,0,0,2.8.76,14.37,14.37,0,0,0,3.36.39h4.49a19.07,19.07,0,0,0,2.18-.13c.62-.07,1.29-.19,2-.33a15.76,15.76,0,0,0,2.86-.89,24.6,24.6,0,0,0,3.31-1.52A16.84,16.84,0,0,0,99,69.83a19.72,19.72,0,0,0,2.52-3.13l-2,8.88H161l12.29-54h9L170,75.58h22L209.49,0Z"/><path class="cls-1" d="M496.53,8.57a13.1,13.1,0,0,0-4.09-5.48l-.13-.1-.14-.1A18.31,18.31,0,0,0,489,1.21a17.71,17.71,0,0,0-3-.89A12.28,12.28,0,0,0,483.24,0l-.76,0H384.82l-2.53,11a10.72,10.72,0,0,0-.72-2.57,13.14,13.14,0,0,0-4.06-5.4l-.14-.1-.14-.1a18.31,18.31,0,0,0-3.18-1.68,17.71,17.71,0,0,0-3-.89A12.28,12.28,0,0,0,368.3,0l-.76,0h-4.32a20.82,20.82,0,0,0-3.73.32,19.16,19.16,0,0,0-3.31.93A17.73,17.73,0,0,0,350,5.09a24.16,24.16,0,0,0-3.54,4.25,17.6,17.6,0,0,0-2,4.22,14.27,14.27,0,0,0-.59,2.24l-2.21,10L345.49,0H324.27c-2.54,0-4.83,1.33-6.81,3.94a34.75,34.75,0,0,0-3.4,5.59c-.4.73-.8,1.51-1.18,2.3l-1.1,2.34c-.31.63-.58,1.26-.82,1.88a8.25,8.25,0,0,1-.43,1l-.14.28-.1.29c-.32.9-.63,1.67-.92,2.31l-.06.12-.05.13c-.66,1.65-1.16,3-1.54,4.17-.15.47-.25.76-.31.93l-.14.21-7.14,21.32a12,12,0,0,0-.58-3.5,13.6,13.6,0,0,0-.49-1.31c.4-.43.79-.88,1.14-1.34s.69-.92,1-1.41a13.34,13.34,0,0,0,.88-1.64,17.41,17.41,0,0,0,1.69-4.76l3.56-15.34A14.64,14.64,0,0,0,307,8.57a13.1,13.1,0,0,0-4.09-5.48l-.13-.1-.14-.1a18.31,18.31,0,0,0-3.18-1.68,17.71,17.71,0,0,0-3-.89A12.28,12.28,0,0,0,293.69,0l-.76,0H231l-4.87,21.57h11.72l-12.28,54h22.29l12.28-54h7.65l-12.35,54h78.82L335.38,68A12.55,12.55,0,0,0,339,72.42a12.25,12.25,0,0,0,3.64,2,19,19,0,0,0,2.8.76,14,14,0,0,0,3.27.39h4.58a11.54,11.54,0,0,0,2.58-.31l.12,0A11.8,11.8,0,0,1,357.2,75a13.42,13.42,0,0,0,3.09-.88,24.15,24.15,0,0,0,3.32-1.52,16.87,16.87,0,0,0,3.82-2.89,18.11,18.11,0,0,0,2-2.45l-1.9,8.3h22.29l.84-3.65.82,3.65h22.94l30.74.11,0-.11h38.5l5.48-24.22a14.79,14.79,0,0,0-.08-8,13.6,13.6,0,0,0-.49-1.31c.4-.43.79-.88,1.14-1.34a16.19,16.19,0,0,0,1-1.41,12.14,12.14,0,0,0,.89-1.64,17.75,17.75,0,0,0,1.69-4.76l3.56-15.34A14.64,14.64,0,0,0,496.53,8.57Zm-137,36.81L362.88,30l15.1-.12-3.51,15.35Zm45-6.42,18.3-25.19L411.32,64.09Zm38.75-17.37h14.06l-1.19,5.2h-14Zm-6.06,26.77h14L449.9,54.1h-14Z"/><path class="cls-10" d="M21.24,5.12H38.75L38,46.28,56.07,5.12H73.76L58.91,70.48H47.09l9.26-40.61L37.56,70.48h-9.9l-.37-40-9.07,40H6.39Z"/><path class="cls-10" d="M111.53,5.12,99.15,59.2a14.06,14.06,0,0,1-1.56,4.08,14.87,14.87,0,0,1-2.24,2.94,11.94,11.94,0,0,1-2.66,2A18.59,18.59,0,0,1,90,69.47a10.53,10.53,0,0,1-2,.64c-.61.13-1.16.22-1.65.28a14.42,14.42,0,0,1-1.56.09H80.27A9,9,0,0,1,78,70.2a14.85,14.85,0,0,1-2.2-.59,7.16,7.16,0,0,1-2.2-1.24A8.06,8.06,0,0,1,71.1,65,10,10,0,0,1,71,59.11l12.38-54H95.12L83.48,56.36v.1c0,.06,0,.22,0,.5a3.29,3.29,0,0,0,0,.92,1.61,1.61,0,0,0,.46.87,1.64,1.64,0,0,0,1.19.36,2.25,2.25,0,0,0,1.33-.36,3.58,3.58,0,0,0,.82-.83,5,5,0,0,0,.51-.87,1.72,1.72,0,0,0,.18-.59v-.1L99.7,5.12Z"/><path class="cls-10" d="M138.78,59.11l-2.57,11.37H105.84L120.69,5.12h11.82l-12.28,54Z"/><path class="cls-10" d="M182.62,5.12l-2.57,11.37H169.24L157,70.48H145.13l12.28-54H145.68l2.57-11.37Z"/><path class="cls-10" d="M188.25,70.48H176.43L191.27,5.12H203.1L188.25,70.57Z"/><path class="cls-10" d="M269.45,5.12l-2.56,11.37H256.07l-12.28,54H232l12.29-54H232.51l2.57-11.37Z"/><path class="cls-10" d="M276.79,5.12H293.1a7,7,0,0,1,2.29.19,11.73,11.73,0,0,1,2.16.64,12.42,12.42,0,0,1,2.24,1.19,8.1,8.1,0,0,1,2.48,3.39,9.86,9.86,0,0,1,.09,5.87l-3.58,15.4a11.8,11.8,0,0,1-1.28,3.57,7.28,7.28,0,0,1-.6,1.15,9.7,9.7,0,0,1-.68,1,12.51,12.51,0,0,1-2,2.06,16.64,16.64,0,0,1-2.16,1.52,1.77,1.77,0,0,0,.28.23,1.21,1.21,0,0,1,.27.22,7.89,7.89,0,0,1,2.07,3.4,10.14,10.14,0,0,1,0,5.31l-4.58,20.26H278.25L283.2,48.3a3.29,3.29,0,0,0,.09-1.7,1.58,1.58,0,0,0-.55-.87,1.25,1.25,0,0,0-.91-.37h-2.48l-5.68,25.12H261.84Zm5.68,26.68h2.38a1.88,1.88,0,0,0,1-.28,2.7,2.7,0,0,0,.92-.64,3.2,3.2,0,0,0,.73-1.28c0-.06.12-.61.37-1.65s.5-2.19.78-3.44.55-2.4.82-3.44.41-1.58.41-1.65c.25-1.34.09-2.23-.46-2.65a1.33,1.33,0,0,0-1-.37H286Z"/><path class="cls-10" d="M329.86,70.48H318l2-11.37h-6.78l-3.85,11.37H297.59l14.3-42.71a12.4,12.4,0,0,0,.69-1.84c.33-1,.81-2.32,1.42-3.85.37-.79.73-1.71,1.1-2.75a15.42,15.42,0,0,0,.64-1.46,15.58,15.58,0,0,1,.64-1.47l1.1-2.34c.37-.76.74-1.48,1.1-2.15a30.44,30.44,0,0,1,2.94-4.86c1-1.28,1.89-1.93,2.75-1.93h15.3ZM317,47.75h5L327.2,17.5Z"/><path class="cls-10" d="M375.14,24.83l-11.83.09,1.29-5.5a3,3,0,0,0,0-1.69,1.82,1.82,0,0,0-.6-.87,2.21,2.21,0,0,0-1.09-.37,2.16,2.16,0,0,0-1.33.37,3.59,3.59,0,0,0-.87.87,3.11,3.11,0,0,0-.51,1,4.1,4.1,0,0,1-.23.64l-8.16,37v.1c0,.06,0,.22,0,.5a3.26,3.26,0,0,0,0,.92,1.76,1.76,0,0,0,.46.87,1.66,1.66,0,0,0,1.19.36,2.23,2.23,0,0,0,1.33-.36,3.42,3.42,0,0,0,.83-.87,8,8,0,0,0,.5-.92,1.84,1.84,0,0,0,.19-.6l1.37-5.86,11.73-.09L367.53,59A16.09,16.09,0,0,1,366,63.15a13.48,13.48,0,0,1-2.2,3,11.92,11.92,0,0,1-2.66,2,19.28,19.28,0,0,1-2.71,1.24,8.78,8.78,0,0,1-2,.6,15.13,15.13,0,0,0-1.65.32,7,7,0,0,1-1.47.18h-4.58a8.68,8.68,0,0,1-2.2-.28,15.18,15.18,0,0,1-2.2-.59,7.16,7.16,0,0,1-2.2-1.24A7.74,7.74,0,0,1,339.57,65a9.71,9.71,0,0,1-.09-5.83l9.44-42.62v-.09c0-.06.14-.53.41-1.42a13.13,13.13,0,0,1,1.47-3,18.58,18.58,0,0,1,2.8-3.34A12.53,12.53,0,0,1,358,6a14.8,14.8,0,0,1,2.42-.69,15.77,15.77,0,0,1,2.8-.23h4.49a7,7,0,0,1,2.29.19,11.73,11.73,0,0,1,2.16.64,12.42,12.42,0,0,1,2.24,1.19,8.09,8.09,0,0,1,2.48,3.35A10,10,0,0,1,377,16.4Z"/><path class="cls-10" d="M400.71,5.12l-4.31,18.8,12.83-18.8H422.8L399,37.94l8.8,32.54H395.58l-4.86-21.63-5,21.63H373.94L388.88,5.12Z"/><path class="cls-10" d="M453.5,16.49H439.2l-3.48,15.4h14.21l-2.57,11.37H433.15L429.49,59.2h14.3l-2.66,11.37-26-.09L430,5.12h26Z"/><path class="cls-10" d="M466.33,5.12h16.32a7,7,0,0,1,2.29.19A11.73,11.73,0,0,1,487.1,6a12.42,12.42,0,0,1,2.24,1.19,8.1,8.1,0,0,1,2.48,3.39,9.86,9.86,0,0,1,.09,5.87l-3.58,15.4a11.8,11.8,0,0,1-1.28,3.57,7.28,7.28,0,0,1-.6,1.15,9.7,9.7,0,0,1-.68,1,12.51,12.51,0,0,1-2,2.06,16.64,16.64,0,0,1-2.16,1.52,1.77,1.77,0,0,0,.28.23,1.21,1.21,0,0,1,.27.22,7.78,7.78,0,0,1,2.06,3.4,10,10,0,0,1,0,5.31l-4.58,20.26H467.8l4.95-22.18a3.4,3.4,0,0,0,.09-1.7,1.58,1.58,0,0,0-.55-.87,1.25,1.25,0,0,0-.91-.37H468.9l-5.68,25.12H451.39ZM472,31.8h2.38a1.88,1.88,0,0,0,1-.28,2.8,2.8,0,0,0,.92-.64,3.2,3.2,0,0,0,.73-1.28c0-.06.12-.61.37-1.65s.5-2.19.78-3.44.54-2.4.82-3.44.41-1.58.41-1.65c.25-1.34.09-2.23-.46-2.65a1.33,1.33,0,0,0-1-.37H475.5Z"/></g></g></svg>