<svg xmlns="http://www.w3.org/2000/svg" width="43.537" height="27.705" viewBox="0 0 43.537 27.705">
  <path id="Icon_material-people" data-name="Icon material-people" d="M31.184,19.374a5.937,5.937,0,1,0-5.937-5.937A5.912,5.912,0,0,0,31.184,19.374Zm-15.831,0a5.937,5.937,0,1,0-5.937-5.937A5.912,5.912,0,0,0,15.353,19.374Zm0,3.958c-4.611,0-13.853,2.315-13.853,6.926v4.947H29.205V30.258C29.205,25.647,19.963,23.332,15.353,23.332Zm15.831,0c-.574,0-1.227.04-1.92.1,2.3,1.662,3.9,3.9,3.9,6.827v4.947H45.037V30.258C45.037,25.647,35.795,23.332,31.184,23.332Z" transform="translate(-1.5 -7.5)" fill="#fff"/>
</svg>
