<svg xmlns="http://www.w3.org/2000/svg" width="34.279" height="34.279" viewBox="0 0 34.279 34.279">
  <path id="Icon_material-track-changes" data-name="Icon material-track-changes" d="M32.257,8.022,29.84,10.439A13.727,13.727,0,1,1,18.425,6.548V10.01a10.282,10.282,0,1,0,8.981,2.862L24.99,15.289a6.873,6.873,0,1,1-6.564-1.765v3.668a3.393,3.393,0,0,0-1.714,2.948,3.428,3.428,0,0,0,6.856,0,3.373,3.373,0,0,0-1.714-2.948V3H20.139A17.146,17.146,0,1,0,32.257,8.022Z" transform="translate(-3 -3)" fill="#fff"/>
</svg>
