<svg xmlns="http://www.w3.org/2000/svg" width="34.273" height="34.273" viewBox="0 0 34.273 34.273">
  <path id="Icon_ionic-ios-paper" data-name="Icon ionic-ios-paper" d="M9.636,6.011V32.54a1.157,1.157,0,0,1-1.153,1.153h0A1.157,1.157,0,0,1,7.33,32.54V8.648H6.011a2.634,2.634,0,0,0-2.636,2.636V35.012a2.634,2.634,0,0,0,2.636,2.636H35.1A2.547,2.547,0,0,0,37.648,35.1V6.011a2.634,2.634,0,0,0-2.636-2.636l-22.9.165A2.361,2.361,0,0,0,9.636,6.011Zm5.438,2.636h6.92A1.157,1.157,0,0,1,23.148,9.8h0a1.157,1.157,0,0,1-1.153,1.153h-6.92A1.157,1.157,0,0,1,13.921,9.8h0A1.157,1.157,0,0,1,15.074,8.648Zm0,13.182H27.267a1.157,1.157,0,0,1,1.153,1.153h0a1.157,1.157,0,0,1-1.153,1.153H15.074a1.157,1.157,0,0,1-1.153-1.153h0A1.157,1.157,0,0,1,15.074,21.83Zm16.148,8.9H15.074a1.157,1.157,0,0,1-1.153-1.153h0a1.157,1.157,0,0,1,1.153-1.153H31.222a1.157,1.157,0,0,1,1.153,1.153h0A1.157,1.157,0,0,1,31.222,30.727Zm0-13.182H15.074a1.157,1.157,0,0,1-1.153-1.153h0a1.157,1.157,0,0,1,1.153-1.153H31.222a1.157,1.157,0,0,1,1.153,1.153h0A1.157,1.157,0,0,1,31.222,17.546Z" transform="translate(-3.375 -3.375)" fill="#fff"/>
</svg>
