<svg xmlns="http://www.w3.org/2000/svg" width="34.038" height="25.031" viewBox="0 0 34.038 25.031">
  <g id="Icon_ionic-ios-tv" data-name="Icon ionic-ios-tv" transform="translate(-0.984 -5.484)">
    <path id="Path_4773" data-name="Path 4773" d="M31.76,5.484H4.24A3.262,3.262,0,0,0,.984,8.74V23.892A3.262,3.262,0,0,0,4.24,27.148H31.767a3.262,3.262,0,0,0,3.255-3.255V8.74A3.272,3.272,0,0,0,31.76,5.484Zm1.287,18.4a1.287,1.287,0,0,1-1.287,1.287H4.24a1.287,1.287,0,0,1-1.287-1.287V8.74A1.287,1.287,0,0,1,4.24,7.453H31.767A1.287,1.287,0,0,1,33.054,8.74V23.885Z" fill="#fff"/>
    <path id="Path_4774" data-name="Path 4774" d="M30.656,9H5.344a.846.846,0,0,0-.844.844V22.781a.846.846,0,0,0,.844.844H30.656a.846.846,0,0,0,.844-.844V9.844A.846.846,0,0,0,30.656,9Z" fill="#fff"/>
    <path id="Path_4775" data-name="Path 4775" d="M26.016,28.547H9.984a.984.984,0,0,0,0,1.969H26.016a.984.984,0,0,0,0-1.969Z" fill="#fff"/>
  </g>
</svg>
